<svg width="359" height="453" viewBox="0 0 359 453" fill="none" xmlns="http://www.w3.org/2000/svg">
<g style="mix-blend-mode:luminosity" opacity="0.16" clip-path="url(#clip0_197_4)">
<g opacity="0.45">
<path d="M249.417 362.025V410.963H227.325L233.646 404.848L227.325 398.733L233.646 392.618L227.325 386.503L233.646 380.382L227.325 374.267L233.646 368.146L227.325 362.025H249.417Z" fill="#46BA3C"/>
<path d="M320.664 362.025V412.461C320.664 419.267 304.714 424.776 285.04 424.776C265.367 424.776 249.417 419.267 249.417 412.461V362.025H320.664Z" fill="#D4F4D1"/>
<path d="M249.417 362.025V412.461C249.417 419.267 265.367 424.776 285.041 424.776C304.714 424.776 320.664 419.267 320.664 412.461V362.025H249.417ZM318.089 412.461C318.089 416.43 305.215 422.197 285.041 422.197C264.867 422.197 251.992 416.431 251.992 412.461V364.603H318.089V412.461Z" fill="#FAFAFA"/>
<path d="M285.04 374.589C304.714 374.589 320.663 368.964 320.663 362.025C320.663 355.085 304.714 349.46 285.04 349.46C265.366 349.46 249.417 355.085 249.417 362.025C249.417 368.964 265.366 374.589 285.04 374.589Z" fill="#46BA3C"/>
<path d="M285.04 366.246C291.65 366.246 297.009 364.356 297.009 362.025C297.009 359.693 291.65 357.803 285.04 357.803C278.43 357.803 273.072 359.693 273.072 362.025C273.072 364.356 278.43 366.246 285.04 366.246Z" fill="#D4F4D1"/>
<path d="M285.04 349.46C265.366 349.46 249.417 355.085 249.417 362.025C249.417 368.964 265.366 374.589 285.04 374.589C304.714 374.589 320.663 368.964 320.663 362.025C320.662 355.085 304.714 349.46 285.04 349.46ZM285.04 372.011C264.866 372.011 251.992 366.096 251.992 362.024C251.992 357.952 264.866 352.037 285.04 352.037C305.214 352.037 318.088 357.952 318.088 362.024C318.087 366.096 305.214 372.011 285.04 372.011Z" fill="#FAFAFA"/>
</g>
<g opacity="0.45">
<path d="M295.749 243.874H259.158C243.359 243.874 229.675 233.657 225.882 219.029L223.566 210.093C223.129 208.411 223.495 206.648 224.569 205.258C225.711 203.779 227.464 202.931 229.378 202.931H325.529C327.443 202.931 329.196 203.779 330.338 205.258C331.412 206.648 331.777 208.411 331.341 210.093L329.024 219.028C325.231 233.657 311.548 243.874 295.749 243.874ZM229.378 205.441C228.246 205.441 227.216 205.934 226.552 206.793C225.948 207.576 225.749 208.524 225.992 209.462L228.309 218.397C231.815 231.92 244.501 241.363 259.158 241.363H295.75C310.407 241.363 323.092 231.92 326.599 218.397L328.916 209.462C329.159 208.524 328.96 207.576 328.355 206.793C327.692 205.934 326.662 205.441 325.529 205.441H229.378Z" fill="#FAFAFA"/>
<path d="M319.547 197.441C309.666 197.412 299.876 195.751 290.455 192.762C286.66 191.558 282.156 190.595 277.454 190.595C272.752 190.595 268.247 191.558 264.453 192.762C255.033 195.751 245.245 197.412 235.365 197.441C234.45 197.441 233.709 198.183 233.709 199.099V205.296C233.709 229.487 253.294 249.098 277.454 249.098C301.614 249.098 321.199 229.487 321.199 205.296V199.095C321.199 198.182 320.459 197.441 319.547 197.441Z" fill="#46BA3C"/>
<path d="M319.547 197.441C309.666 197.412 299.876 195.751 290.455 192.762C286.66 191.558 282.156 190.595 277.454 190.595C272.752 190.595 268.247 191.558 264.453 192.762C255.033 195.751 245.245 197.412 235.365 197.441C234.45 197.441 233.709 198.183 233.709 199.099V205.296C233.709 229.487 253.294 249.098 277.454 249.098C301.614 249.098 321.199 229.487 321.199 205.296V199.095C321.199 198.182 320.459 197.441 319.547 197.441ZM318.692 205.296C318.692 228.064 300.193 246.588 277.454 246.588C254.715 246.588 236.215 228.065 236.215 205.296V199.944C245.803 199.829 255.553 198.218 265.21 195.155C269.497 193.795 273.616 193.105 277.454 193.105C281.292 193.105 285.411 193.795 289.698 195.155C299.352 198.218 309.1 199.828 318.693 199.944V205.296H318.692Z" fill="#FAFAFA"/>
<path d="M256.021 207.254L255.477 204.804C258.295 204.176 261.188 203.394 264.075 202.479C268.717 201.004 273.218 200.256 277.45 200.256C281.687 200.256 286.19 201.004 290.833 202.479C293.675 203.381 296.568 204.16 299.43 204.797L298.886 207.248C295.953 206.595 292.989 205.796 290.076 204.872C285.676 203.474 281.429 202.766 277.45 202.766C273.476 202.766 269.23 203.474 264.832 204.872C261.876 205.809 258.911 206.61 256.021 207.254Z" fill="#FAFAFA"/>
</g>
<g opacity="0.45">
<path d="M40.64 232.795C40.2391 233.868 39.3928 235.869 37.8006 238.627C37.3943 239.328 36.9428 240.086 36.4344 240.882C32.8331 246.54 26.5509 254.532 15.8206 263.874L1.12812 276.665L-13.5591 263.874C-23.3525 255.351 -29.4371 247.953 -33.1569 242.426C-33.6933 241.628 -34.1786 240.877 -34.619 240.165C-36.8146 236.604 -37.9042 234.061 -38.3784 232.795C-42.6963 221.197 -36.8035 208.289 -25.2213 203.965C-15.3488 200.285 -4.52849 204.021 1.12723 212.386C6.78294 204.021 17.6091 200.285 27.4757 203.965C39.0651 208.288 44.9579 221.197 40.64 232.795Z" fill="#46BA3C"/>
<path d="M27.4788 203.965C24.9049 203.004 22.2635 202.552 19.667 202.552C15.9867 202.552 12.3969 203.462 9.20761 205.152C6.01256 206.836 3.21888 209.294 1.13029 212.386C-3.05222 206.203 -10.0515 202.552 -17.4122 202.552C-20.0029 202.552 -22.6448 203.004 -25.2186 203.965C-36.8009 208.288 -42.6942 221.197 -38.3758 232.795C-37.9016 234.061 -36.8125 236.604 -34.6169 240.165H-34.6191C-34.1791 240.877 -33.6933 241.629 -33.1574 242.426H-33.1548V242.426C-29.4349 247.953 -23.3503 255.352 -13.5569 263.875L1.13029 276.665L15.8228 263.875C26.553 254.532 32.8353 246.541 36.4366 240.883C36.9445 240.086 37.396 239.329 37.8023 238.628C39.3941 235.87 40.2408 233.869 40.6417 232.795C44.9601 221.197 39.0673 208.288 27.4788 203.965ZM14.3385 262.168L1.13029 273.669L-12.0779 262.168C-19.7028 255.536 -25.8647 248.899 -30.4152 242.426H2.77578L6.67056 227.425L11.9311 260.11L18.3603 233.806L21.4537 249.106L24.6709 240.849L33.7388 240.875C30.3595 245.935 24.3925 253.417 14.3385 262.168ZM38.5251 232.003C38.1864 232.902 37.396 234.812 35.8496 237.491C35.6134 237.894 35.3927 238.266 35.1787 238.619L23.1355 238.582L22.1423 241.119L18.5636 223.452L12.3884 248.732L7.18428 216.432L1.03173 240.164H-31.944C-32.2068 239.76 -32.4603 239.362 -32.6974 238.978C-34.8082 235.553 -35.8414 233.134 -36.2646 232.003C-40.1367 221.592 -34.8309 209.967 -24.4336 206.084C-22.1643 205.236 -19.8053 204.812 -17.4117 204.812C-10.7175 204.812 -4.48591 208.113 -0.743404 213.652L1.13074 216.415L2.99911 213.652C6.74117 208.118 12.9728 204.812 19.667 204.812C22.0606 204.812 24.4254 205.236 26.6889 206.084C31.7292 207.96 35.7315 211.696 37.9724 216.59C40.2075 221.485 40.3993 226.962 38.5251 232.003Z" fill="#FAFAFA"/>
</g>
<g opacity="0.45">
<path d="M178.552 286.11C185.882 286.272 186.14 294.304 184.397 300.76C183.437 304.313 183.549 306.504 183.987 307.848C184.463 309.307 185.956 310.168 187.465 309.904C189.557 309.539 192.805 307.301 195.5 295.718C196.473 291.533 198.196 287.668 199.44 285.047C215.444 251.31 204.341 236.75 192.929 236.75C189.461 236.75 186.829 237.638 184.831 238.97C180.984 241.536 176.121 241.536 172.274 238.97C170.276 237.638 167.643 236.75 164.176 236.75C152.763 236.75 141.661 251.31 157.665 285.047C158.908 287.668 160.632 291.534 161.605 295.718C164.299 307.301 167.548 309.539 169.639 309.904C171.149 310.168 172.642 309.307 173.117 307.848C173.555 306.504 173.667 304.312 172.708 300.76C170.963 294.304 171.222 286.273 178.552 286.11Z" fill="#46BA3C"/>
<path d="M192.928 236.749C189.46 236.749 186.828 237.637 184.83 238.97C182.907 240.252 180.729 240.894 178.551 240.894C176.374 240.894 174.196 240.252 172.273 238.97C170.275 237.637 167.643 236.749 164.175 236.749C152.763 236.749 141.66 251.31 157.664 285.046C158.908 287.668 160.63 291.533 161.604 295.718C164.298 307.301 167.547 309.538 169.639 309.904C169.821 309.936 170.002 309.951 170.182 309.951C171.493 309.951 172.698 309.13 173.117 307.848C173.554 306.504 173.667 304.311 172.707 300.759C170.963 294.304 171.222 286.272 178.552 286.109C185.882 286.272 186.14 294.303 184.397 300.759C183.437 304.312 183.549 306.504 183.987 307.848C184.405 309.13 185.61 309.951 186.921 309.951C187.101 309.951 187.283 309.935 187.465 309.904C189.556 309.538 192.805 307.3 195.499 295.718C196.472 291.533 198.195 287.668 199.439 285.046C215.444 251.31 204.341 236.749 192.928 236.749ZM197.483 284.116C196.105 287.021 194.394 290.91 193.39 295.226C192.739 298.024 190.362 307.196 187.093 307.768C187.036 307.777 186.979 307.783 186.922 307.783C186.517 307.783 186.166 307.539 186.047 307.175C185.814 306.462 185.562 304.753 186.488 301.326C187.245 298.524 188.654 291.539 185.405 287.19C184.332 285.753 182.28 284.023 178.6 283.942L178.552 283.941L178.504 283.942C174.824 284.023 172.773 285.753 171.699 287.19C168.451 291.539 169.86 298.525 170.617 301.326C171.542 304.753 171.29 306.462 171.057 307.176C170.939 307.539 170.588 307.783 170.182 307.783C170.125 307.783 170.068 307.778 170.011 307.768C166.742 307.197 164.365 298.024 163.714 295.226C162.71 290.91 160.999 287.022 159.621 284.116C155.094 274.574 152.514 266.061 151.951 258.815C151.492 252.904 152.426 247.914 154.653 244.386C156.847 240.912 160.317 238.919 164.175 238.919C166.905 238.919 169.225 239.543 171.073 240.776C173.317 242.272 175.904 243.064 178.552 243.064C181.201 243.064 183.787 242.272 186.031 240.776C187.879 239.544 190.2 238.919 192.929 238.919C196.787 238.919 200.258 240.911 202.451 244.386C204.678 247.914 205.613 252.904 205.154 258.815C204.59 266.061 202.009 274.573 197.483 284.116Z" fill="#FAFAFA"/>
</g>
<g opacity="0.45">
<path d="M108.77 398.814C121.214 398.814 131.301 388.713 131.301 376.254C131.301 363.794 121.214 353.694 108.77 353.694C96.327 353.694 86.2397 363.794 86.2397 376.254C86.2397 388.713 96.327 398.814 108.77 398.814Z" fill="#D4F4D1"/>
<path d="M124.701 360.301C115.903 351.491 101.637 351.491 92.8389 360.301C84.04 369.111 84.04 383.395 92.8389 392.205C101.638 401.015 115.903 401.015 124.701 392.205C133.5 383.395 133.5 369.111 124.701 360.301ZM94.6593 390.382C86.8785 382.591 86.8785 369.915 94.6593 362.124C102.44 354.333 115.1 354.333 122.881 362.124C130.661 369.915 130.661 382.591 122.881 390.382C115.1 398.173 102.44 398.173 94.6593 390.382Z" fill="#FAFAFA"/>
<path d="M112.361 373.875C112.681 373.583 112.705 373.087 112.414 372.766L112.22 372.552C111.975 372.282 111.952 371.881 112.158 371.581C112.528 371.041 112.801 370.453 112.977 369.842C113.077 369.49 113.401 369.252 113.766 369.27L114.054 369.283C114.486 369.304 114.853 368.97 114.874 368.537C114.895 368.104 114.561 367.737 114.129 367.716L113.841 367.702C113.477 367.685 113.177 367.416 113.11 367.057C112.994 366.431 112.778 365.82 112.462 365.247C112.285 364.929 112.347 364.532 112.616 364.287L112.83 364.092C113.151 363.801 113.174 363.305 112.883 362.984C112.593 362.663 112.097 362.639 111.776 362.931L111.563 363.125C111.293 363.37 110.893 363.393 110.593 363.187C110.054 362.817 109.467 362.543 108.856 362.367C108.505 362.266 108.267 361.942 108.284 361.577L108.298 361.289C108.319 360.856 107.985 360.488 107.553 360.467C107.121 360.446 106.753 360.781 106.733 361.213L106.719 361.502C106.702 361.867 106.433 362.166 106.075 362.234C105.45 362.35 104.839 362.566 104.267 362.883C103.949 363.06 103.553 362.998 103.308 362.728L103.114 362.514C102.823 362.194 102.327 362.17 102.007 362.461C101.687 362.752 101.663 363.249 101.954 363.569L102.148 363.783C102.392 364.053 102.416 364.454 102.21 364.754C101.84 365.294 101.567 365.882 101.391 366.494C101.29 366.845 100.967 367.083 100.602 367.066L100.314 367.052C99.8812 367.031 99.514 367.365 99.4931 367.798C99.4722 368.231 99.8061 368.599 100.238 368.62L100.527 368.633C100.891 368.651 101.191 368.919 101.258 369.278C101.374 369.904 101.59 370.515 101.906 371.088C102.083 371.407 102.021 371.804 101.751 372.049L101.538 372.243C101.218 372.534 101.194 373.031 101.484 373.351C101.776 373.672 102.271 373.696 102.591 373.405L102.805 373.21C103.074 372.965 103.475 372.942 103.775 373.148C104.314 373.518 104.901 373.792 105.512 373.968C105.862 374.069 106.1 374.393 106.083 374.758L106.069 375.047C106.048 375.48 106.382 375.848 106.815 375.868C107.247 375.889 107.614 375.555 107.635 375.122L107.649 374.833C107.666 374.468 107.934 374.169 108.293 374.102C108.918 373.985 109.528 373.769 110.101 373.452C110.419 373.276 110.816 373.337 111.06 373.607L111.254 373.821C111.545 374.142 112.04 374.166 112.361 373.875Z" fill="#46BA3C"/>
<path d="M114.687 385.71C114.999 385.854 115.369 385.717 115.513 385.405L115.609 385.197C115.73 384.934 116.016 384.793 116.299 384.85C116.808 384.954 117.321 384.972 117.823 384.91C118.11 384.875 118.385 385.038 118.485 385.311L118.565 385.526C118.684 385.848 119.041 386.014 119.364 385.895C119.686 385.776 119.851 385.418 119.733 385.095L119.654 384.88C119.553 384.607 119.656 384.305 119.898 384.145C120.319 383.866 120.698 383.518 121.019 383.109C121.197 382.881 121.506 382.803 121.768 382.924L121.976 383.02C122.288 383.165 122.658 383.028 122.802 382.715C122.946 382.403 122.809 382.033 122.497 381.889L122.289 381.793C122.027 381.671 121.885 381.385 121.943 381.102C122.046 380.592 122.064 380.077 122.003 379.576C121.968 379.288 122.13 379.013 122.403 378.913L122.617 378.833C122.94 378.714 123.105 378.356 122.986 378.033C122.867 377.71 122.51 377.545 122.187 377.664L121.972 377.744C121.7 377.844 121.398 377.741 121.238 377.499C120.959 377.077 120.612 376.698 120.203 376.377C119.976 376.199 119.898 375.889 120.019 375.627L120.115 375.418C120.259 375.106 120.123 374.735 119.81 374.591C119.498 374.447 119.128 374.584 118.985 374.896L118.889 375.105C118.767 375.367 118.482 375.509 118.199 375.451C117.69 375.348 117.176 375.33 116.675 375.391C116.387 375.427 116.113 375.263 116.012 374.991L115.933 374.776C115.814 374.453 115.456 374.288 115.134 374.406C114.811 374.525 114.646 374.884 114.765 375.207L114.844 375.422C114.945 375.695 114.842 375.997 114.6 376.157C114.179 376.436 113.8 376.783 113.479 377.193C113.301 377.421 112.992 377.499 112.73 377.378L112.522 377.282C112.21 377.138 111.84 377.274 111.696 377.587C111.552 377.899 111.688 378.27 112 378.414L112.209 378.51C112.471 378.631 112.613 378.917 112.555 379.201C112.452 379.71 112.434 380.225 112.495 380.726C112.53 381.014 112.367 381.289 112.095 381.389L111.88 381.469C111.557 381.588 111.393 381.946 111.511 382.269C111.63 382.592 111.988 382.757 112.31 382.639L112.525 382.559C112.797 382.459 113.099 382.562 113.259 382.804C113.538 383.225 113.885 383.606 114.294 383.926C114.522 384.104 114.6 384.413 114.478 384.676L114.382 384.884C114.239 385.195 114.375 385.566 114.687 385.71Z" fill="#46BA3C"/>
<path d="M108.153 387.746C108.392 387.506 108.392 387.118 108.153 386.878L107.994 386.718C107.793 386.517 107.759 386.205 107.909 385.962C108.177 385.527 108.369 385.058 108.483 384.574C108.549 384.296 108.792 384.098 109.077 384.098H109.303C109.641 384.098 109.916 383.823 109.916 383.484C109.916 383.145 109.641 382.871 109.303 382.871H109.077C108.792 382.871 108.548 382.672 108.483 382.394C108.369 381.91 108.177 381.441 107.909 381.006C107.759 380.764 107.793 380.451 107.994 380.25L108.153 380.09C108.392 379.851 108.392 379.462 108.153 379.223C107.914 378.983 107.526 378.983 107.287 379.223L107.127 379.382C106.926 379.584 106.614 379.617 106.372 379.467C105.937 379.198 105.469 379.007 104.985 378.892C104.707 378.826 104.51 378.582 104.51 378.297V378.071C104.51 377.732 104.235 377.457 103.897 377.457C103.558 377.457 103.284 377.732 103.284 378.071V378.297C103.284 378.583 103.086 378.827 102.809 378.892C102.325 379.006 101.857 379.198 101.422 379.467C101.18 379.617 100.868 379.583 100.667 379.382L100.507 379.222C100.268 378.983 99.8804 378.983 99.641 379.222C99.4017 379.462 99.4017 379.851 99.641 380.09L99.8004 380.249C100.002 380.451 100.035 380.763 99.8853 381.006C99.6166 381.441 99.4253 381.91 99.3107 382.394C99.245 382.673 99.0013 382.871 98.7162 382.871H98.4906C98.1523 382.871 97.8779 383.145 97.8779 383.484C97.8779 383.823 98.1523 384.098 98.4906 384.098H98.7162C99.0017 384.098 99.2455 384.296 99.3107 384.574C99.4248 385.058 99.6162 385.527 99.8853 385.963C100.035 386.205 100.002 386.518 99.8004 386.719L99.641 386.879C99.4017 387.118 99.4017 387.506 99.641 387.746C99.8804 387.986 100.268 387.986 100.507 387.746L100.667 387.586C100.868 387.385 101.18 387.352 101.422 387.501C101.857 387.77 102.325 387.962 102.809 388.076C103.087 388.142 103.284 388.386 103.284 388.672V388.897C103.284 389.236 103.558 389.511 103.897 389.511C104.235 389.511 104.51 389.236 104.51 388.897V388.672C104.51 388.386 104.708 388.142 104.986 388.076C105.469 387.962 105.938 387.77 106.373 387.501C106.615 387.352 106.927 387.385 107.128 387.586L107.287 387.746C107.526 387.985 107.914 387.985 108.153 387.746Z" fill="#46BA3C"/>
</g>
<g opacity="0.45">
<path d="M47.5557 172.374C45.0111 175.674 42.2192 178.85 39.4429 181.759C45.448 188.617 54.4893 196.514 54.4893 196.514L59.895 181.134C59.895 181.134 52.7869 176.436 47.5557 172.374Z" fill="#D4F4D1"/>
<path d="M51.4217 146.395C51.4199 146.411 51.4177 146.427 51.415 146.443C51.4767 146.044 50.4577 145.33 50.2064 145.106C49.7598 144.709 49.2443 144.415 48.7123 144.129C47.5655 143.513 46.3525 143.023 45.1026 142.661C42.602 141.937 39.9513 141.727 37.3694 142.061C35.937 142.247 34.4572 142.576 33.1198 143.123C31.6733 143.714 29.8449 144.596 28.9937 145.947C28.9928 145.807 29.0013 145.665 29.0141 145.524C29.0213 145.399 29.0323 145.277 29.0439 145.151C29.051 145.025 29.0665 144.899 29.0821 144.778C29.0976 144.652 29.1136 144.531 29.1336 144.405C29.6611 140.863 31.664 137.354 35.6702 134.004C36.5293 133.844 37.4 133.728 38.2698 133.669C40.6102 133.493 42.9643 133.678 45.2589 134.21C45.3442 134.285 45.4294 134.366 45.5102 134.441C45.6847 134.602 45.8552 134.766 46.0168 134.926C48.9042 137.807 51.1704 141.547 51.415 145.699C51.427 145.924 51.4479 146.174 51.4217 146.395Z" fill="#D4F4D1"/>
<path d="M35.67 134.004C31.6637 137.354 29.6608 140.864 29.1334 144.405C29.1134 144.531 29.0979 144.652 29.0819 144.778C29.0663 144.899 29.0508 145.025 29.0437 145.151C29.0321 145.277 29.021 145.398 29.0139 145.524C29.0024 145.65 28.9957 145.772 28.9931 145.898C28.9882 145.919 28.9877 145.941 28.9873 145.963C29.0055 145.933 29.0499 145.869 29.1174 145.775C29.2022 145.663 29.327 145.514 29.4957 145.339C29.5356 145.292 29.5845 145.241 29.6378 145.194C29.6866 145.143 29.7443 145.088 29.802 145.037C29.8598 144.981 29.9175 144.926 29.9836 144.875C30.0458 144.816 30.1164 144.76 30.187 144.701C30.3282 144.587 30.4831 144.468 30.655 144.346C30.7211 144.3 30.7917 144.249 30.8623 144.203C31.8795 139.53 35.5856 135.728 38.2701 133.668C37.4003 133.728 36.5291 133.844 35.67 134.004Z" fill="#FAFAFA"/>
<path d="M42.668 133.762C45.2618 135.936 48.8028 139.893 49.6193 144.604C49.6877 144.653 49.756 144.707 49.82 144.756C49.9865 144.886 50.1356 145.011 50.2724 145.131C50.3408 145.193 50.4087 145.251 50.4682 145.313C50.5322 145.366 50.5872 145.424 50.6427 145.482C50.6982 145.535 50.7533 145.593 50.7999 145.646C50.851 145.695 50.8976 145.748 50.9357 145.797C51.0969 145.979 51.215 146.133 51.2954 146.248C51.3584 146.345 51.4006 146.411 51.417 146.442C51.4175 146.42 51.4179 146.398 51.4139 146.377C51.4166 146.251 51.4148 146.129 51.409 146.003C51.4073 145.876 51.4015 145.755 51.3953 145.628C51.3935 145.502 51.3833 145.376 51.3731 145.254C51.3629 145.128 51.3522 145.005 51.3376 144.879C50.962 141.319 49.1105 137.726 45.2512 134.208C44.3996 134.013 43.5342 133.859 42.668 133.762Z" fill="#FAFAFA"/>
<path d="M39.7877 165.684C39.2478 166.164 38.699 166.63 38.1507 167.097C38.0357 167.19 37.9252 167.292 37.8102 167.39C37.5979 167.568 37.3773 167.737 37.165 167.911C36.7055 168.284 36.2544 168.657 35.7953 169.017C35.7335 169.063 35.6763 169.105 35.6185 169.152C34.3247 170.164 33.0185 171.127 31.7397 172.035C21.5046 157.557 15.8373 141.086 34.3136 134.463C34.4624 134.405 34.6155 134.352 34.7687 134.303C35.0578 134.2 35.3508 134.102 35.6523 134.008C35.6567 134.008 35.6656 134.004 35.6696 134.004C31.6634 137.354 29.6605 140.864 29.133 144.405C29.113 144.531 29.0975 144.652 29.0815 144.778C29.0659 144.899 29.0504 145.025 29.0433 145.151C29.0278 145.272 29.0162 145.398 29.0136 145.524C29.002 145.65 28.9954 145.772 28.9927 145.898L28.9882 145.902L28.9825 146.172C28.9416 148.088 29.3004 150.005 29.9717 151.902C30.0987 152.257 30.2386 152.617 30.3873 152.972C31.0231 154.508 31.8552 156.022 32.8395 157.513C33.109 157.918 33.3865 158.324 33.6778 158.731C34.8376 160.343 36.1589 161.919 37.5855 163.441C37.764 163.632 37.942 163.822 38.1249 164.009C38.6649 164.577 39.2221 165.133 39.7877 165.684Z" fill="#D4F4D1"/>
<path d="M47.558 172.373C45.0121 175.675 42.2215 178.851 39.4452 181.757C33.1505 188.354 23.7794 195.855 23.7794 195.855L19.0356 180.26C19.0356 180.26 26.3382 175.88 31.7403 172.035C33.0191 171.127 34.3253 170.164 35.6192 169.152C35.6764 169.105 35.7341 169.063 35.7959 169.017C36.2554 168.657 36.7061 168.284 37.1656 167.911C37.3779 167.737 37.5985 167.568 37.8108 167.39C37.9258 167.292 38.0363 167.19 38.1513 167.097C38.6997 166.63 39.2484 166.164 39.7883 165.684C45.8046 160.325 50.8378 154.023 51.3764 147.508C51.3822 147.429 51.3928 147.352 51.3986 147.273C51.4173 147 51.423 146.731 51.4288 146.461L51.4301 146.395C51.4306 146.165 51.427 145.93 51.4146 145.699C51.3986 145.429 51.3782 145.159 51.3493 144.889C51.3236 144.667 51.2983 144.444 51.2592 144.222C51.225 143.999 51.1819 143.777 51.1344 143.554C51.0634 143.217 50.9795 142.885 50.8822 142.548C50.8498 142.434 50.8174 142.325 50.781 142.211C50.614 141.686 50.4085 141.16 50.1678 140.633C50.1265 140.536 50.0808 140.444 50.0351 140.347C50.0142 140.299 49.9893 140.251 49.9645 140.202C49.9103 140.092 49.8521 139.978 49.7935 139.868C49.56 139.419 49.3002 138.975 49.0099 138.529C48.9384 138.419 48.8625 138.309 48.787 138.194C48.711 138.084 48.6356 137.974 48.5552 137.863C48.4748 137.753 48.3949 137.637 48.3106 137.527C48.1458 137.306 47.9727 137.085 47.7906 136.859C47.431 136.417 47.0363 135.973 46.6158 135.534C46.5097 135.423 46.4036 135.312 46.293 135.201C46.2038 135.108 46.1101 135.019 46.0168 134.926C45.8552 134.765 45.6852 134.601 45.5102 134.441C45.4294 134.365 45.3442 134.285 45.2589 134.209C45.3277 134.237 45.401 134.26 45.4698 134.288C45.9742 134.472 46.4648 134.665 46.9342 134.862C47.1104 134.94 47.2827 135.014 47.4545 135.091C64.5562 142.654 58.2229 158.569 47.558 172.373Z" fill="#46BA3C"/>
</g>
<g opacity="0.45">
<path d="M210.29 145.654H197.387C195.11 145.654 193.264 147.502 193.264 149.782V196.2C193.264 198.48 195.11 200.328 197.387 200.328H210.29C212.567 200.328 214.413 198.48 214.413 196.2V149.782C214.413 147.502 212.567 145.654 210.29 145.654Z" fill="#D4F4D1"/>
<path d="M193.264 133.95H214.413V129.281H193.264V133.95Z" fill="#D4F4D1"/>
<path d="M209.581 145.654L207.722 142.736V133.951H199.955V142.736L198.096 145.654H209.581Z" fill="#46BA3C"/>
<path d="M214.415 172.989V196.2C214.415 198.479 212.568 200.328 210.292 200.328H197.389C195.109 200.328 193.266 198.479 193.266 196.2V172.989H214.415Z" fill="#46BA3C"/>
<path d="M210.29 145.654H197.387C196.248 145.654 195.218 146.116 194.472 146.863C193.726 147.609 193.264 148.642 193.265 149.781V196.2C193.265 198.48 195.11 200.328 197.387 200.328H202.841V221.135C202.841 221.687 203.288 222.134 203.839 222.134C204.115 222.134 204.364 222.022 204.545 221.841C204.725 221.66 204.837 221.411 204.837 221.135V200.328H210.291C211.429 200.328 212.46 199.866 213.206 199.119C213.952 198.371 214.413 197.34 214.413 196.2V188.993L214.413 186.995L214.413 149.781C214.413 147.502 212.567 145.654 210.29 145.654ZM212.417 149.782V152.257H203.84V154.255H212.417V157.432H209.127V159.43H212.417V162.123H203.84V164.121H212.417V167.286H209.127V169.284H212.417V171.989H203.84V173.987H212.417V177.14H209.127V179.138H212.417V182.29H203.84V184.288H212.417V186.994H209.127V188.992H212.417V191.721H203.84V193.719H212.417V196.198C212.417 196.767 212.196 197.302 211.794 197.705C211.392 198.107 210.859 198.328 210.29 198.328H197.387C196.214 198.328 195.26 197.373 195.26 196.199V149.782C195.26 149.213 195.482 148.678 195.883 148.276C196.285 147.874 196.818 147.652 197.387 147.652H210.29C210.859 147.652 211.393 147.874 211.794 148.276C212.196 148.678 212.417 149.213 212.417 149.782Z" fill="#FAFAFA"/>
</g>
<g opacity="0.45">
<path d="M153.295 107.911H172.403V103.689H153.295V107.911Z" fill="#D4F4D1"/>
<path d="M153.295 103.689H172.403V87.4272H153.295V103.689Z" fill="#46BA3C"/>
<path d="M162.849 171.978C168.126 171.978 172.404 167.695 172.404 162.412V107.911H153.295V162.412C153.295 167.695 157.573 171.978 162.849 171.978Z" fill="#46BA3C"/>
<path d="M153.295 107.911V162.412C153.295 165.054 154.365 167.445 156.094 169.176C157.822 170.907 160.211 171.978 162.849 171.978C168.126 171.978 172.404 167.695 172.404 162.412V107.911H153.295ZM155.155 109.774H170.544V162.412C170.544 164.47 169.744 166.404 168.29 167.859C166.837 169.314 164.904 170.116 162.849 170.116C160.795 170.116 158.862 169.315 157.409 167.859C155.955 166.404 155.155 164.469 155.155 162.412L155.155 109.774Z" fill="#FAFAFA"/>
</g>
<g opacity="0.45">
<path d="M-23.5677 298.219L-35.9816 310.649C-37.9925 312.663 -37.9925 315.927 -35.9816 317.941L15.4642 369.454C17.4751 371.468 20.7354 371.468 22.7463 369.454L35.1602 357.024C37.1711 355.01 37.1711 351.746 35.1602 349.732L-16.2856 298.219C-18.2965 296.205 -21.5568 296.205 -23.5677 298.219Z" fill="#ABE3A6"/>
<path d="M2.41427 348.228L13.9688 336.658L-3.2278 319.439L-14.7823 331.009L2.41427 348.228Z" fill="#97DB91"/>
<path d="M13.9648 336.661L-3.23187 319.441L-14.7866 331.011L2.41008 348.23L13.9648 336.661ZM-3.23187 322.338L11.0717 336.661L2.41008 345.333L-11.8935 331.012L-3.23187 322.338Z" fill="#FAFAFA"/>
<path d="M17.4914 343.493C16.7672 342.769 16.7672 341.593 17.4914 340.869C18.2151 340.144 19.3886 340.144 20.1128 340.869C20.8365 341.593 20.8365 342.769 20.1128 343.493C19.3886 344.218 18.2151 344.218 17.4914 343.493Z" fill="#46BA3C"/>
<path d="M11.8553 349.137C11.1316 348.412 11.1316 347.237 11.8553 346.512C12.579 345.787 13.753 345.787 14.4767 346.512C15.2009 347.237 15.2009 348.412 14.4767 349.137C13.753 349.862 12.579 349.862 11.8553 349.137Z" fill="#46BA3C"/>
<path d="M6.61246 354.387C5.88829 353.662 5.88829 352.487 6.61246 351.762C7.33619 351.037 8.50969 351.037 9.23386 351.762C9.95758 352.487 9.95758 353.662 9.23386 354.387C8.50969 355.111 7.33619 355.111 6.61246 354.387Z" fill="#46BA3C"/>
<path d="M23.2586 349.268C22.5349 348.543 22.5349 347.368 23.2586 346.643C23.9823 345.918 25.1558 345.918 25.88 346.643C26.6037 347.368 26.6037 348.543 25.88 349.268C25.1558 349.993 23.9823 349.993 23.2586 349.268Z" fill="#46BA3C"/>
<path d="M17.6227 354.911C16.8985 354.187 16.8985 353.011 17.6227 352.286C18.3469 351.562 19.5204 351.562 20.2441 352.286C20.9678 353.011 20.9678 354.187 20.2441 354.911C19.5199 355.636 18.3464 355.636 17.6227 354.911Z" fill="#46BA3C"/>
<path d="M12.3797 360.161C11.656 359.437 11.656 358.261 12.3797 357.536C13.1034 356.812 14.2774 356.812 15.0011 357.536C15.7248 358.261 15.7248 359.437 15.0011 360.161C14.2769 360.886 13.1034 360.886 12.3797 360.161Z" fill="#46BA3C"/>
<path d="M28.8289 354.846C28.1052 354.121 28.1052 352.946 28.8289 352.221C29.5531 351.496 30.7266 351.496 31.4503 352.221C32.1741 352.946 32.1741 354.121 31.4503 354.846C30.7262 355.57 29.5527 355.57 28.8289 354.846Z" fill="#46BA3C"/>
<path d="M23.193 360.489C22.4689 359.765 22.4689 358.589 23.193 357.865C23.9168 357.14 25.0903 357.14 25.8144 357.865C26.5382 358.589 26.5382 359.765 25.8144 360.489C25.0907 361.214 23.9168 361.214 23.193 360.489Z" fill="#46BA3C"/>
<path d="M17.95 365.739C17.2263 365.014 17.2263 363.839 17.95 363.114C18.6737 362.39 19.8477 362.39 20.5714 363.114C21.2951 363.839 21.2951 365.014 20.5714 365.739C19.8477 366.464 18.6737 366.464 17.95 365.739Z" fill="#46BA3C"/>
<path d="M22.7464 369.454L35.1603 357.024C36.166 356.017 36.6685 354.697 36.6685 353.378C36.6685 352.058 36.166 350.739 35.1603 349.732L-16.286 298.219C-18.2968 296.205 -21.5572 296.205 -23.5681 298.219L-35.982 310.648C-36.9876 311.655 -37.4902 312.975 -37.4902 314.294C-37.4902 315.614 -36.9876 316.933 -35.982 317.94L15.4638 369.453C17.4752 371.467 20.7355 371.467 22.7464 369.454ZM16.9108 368.005L-34.5354 316.492C-35.1215 315.905 -35.4443 315.125 -35.4443 314.294C-35.4443 313.464 -35.1215 312.683 -34.5354 312.097L-22.1215 299.667C-21.5354 299.08 -20.7557 298.757 -19.9268 298.757C-19.0978 298.757 -18.3186 299.08 -17.7321 299.667L33.7137 351.18C34.2998 351.767 34.623 352.547 34.623 353.377C34.623 354.207 34.3002 354.988 33.7137 355.575L21.2998 368.005C20.7137 368.592 19.9341 368.915 19.1051 368.915C18.2761 368.915 17.4969 368.592 16.9108 368.005Z" fill="#FAFAFA"/>
</g>
<g opacity="0.45">
<path d="M230.873 105.133C242.477 111.118 257.298 116.455 265.676 108.066C274.058 99.6728 268.724 84.8357 262.748 73.217L259.891 78.4711C259.891 78.4711 265.055 89.3989 256.044 98.4213C247.034 107.444 236.12 102.272 236.12 102.272L230.873 105.133Z" fill="#D4F4D1"/>
<path d="M266.601 108.989C278.574 96.9999 264.938 73.8509 258.385 62.7261C254.905 56.8172 247.796 46.7416 239.286 45.6608C235.456 45.1736 231.857 46.5869 228.587 49.8603L228.586 49.8612L230.432 51.7089L230.433 51.708C233.139 48.9983 235.928 47.8677 238.957 48.2532C246.639 49.229 253.531 59.6283 256.138 64.0541C261.872 73.7882 275.299 96.5842 264.755 107.142C254.211 117.7 231.445 104.255 221.723 98.5137C217.303 95.9036 206.918 89.0023 205.943 81.311C205.558 78.2767 206.687 75.4843 209.394 72.7741L207.549 70.9265C204.279 74.1999 202.868 77.8041 203.354 81.64C203.817 85.2976 206.648 92.6452 220.397 100.764C231.509 107.324 254.627 120.978 266.601 108.989Z" fill="#FAFAFA"/>
<path d="M226.801 48.0727L220.263 54.6201C218.767 56.1179 218.767 58.5457 220.263 60.0435C221.758 61.5413 224.183 61.5413 225.679 60.0435L232.218 53.4962L226.801 48.0727Z" fill="#46BA3C"/>
<path d="M205.763 69.1375L212.302 62.5901C213.798 61.0923 216.223 61.0923 217.718 62.5901C219.214 64.0879 219.214 66.5158 217.718 68.0136L211.18 74.561L205.763 69.1375Z" fill="#46BA3C"/>
<path d="M291.792 150.64C294.23 148.199 295.573 144.954 295.572 141.504C295.572 138.054 294.229 134.808 291.788 132.364L266.599 107.142L264.754 108.99L289.943 134.212C291.89 136.162 292.963 138.752 292.963 141.504C292.963 144.256 291.891 146.845 289.947 148.792C285.93 152.814 279.397 152.813 275.381 148.793L256.84 130.228C254.4 127.784 251.158 126.438 247.713 126.438C244.263 126.442 241.022 127.788 238.586 130.227C233.552 135.267 233.552 143.467 238.585 148.506L260.826 170.776L262.671 168.928L240.43 146.658C236.415 142.638 236.415 136.096 240.431 132.074C242.375 130.128 244.961 129.054 247.715 129.05C250.462 129.05 253.048 130.124 254.995 132.074L273.537 150.64C278.569 155.68 286.759 155.679 291.792 150.64Z" fill="#FAFAFA"/>
<path d="M261.749 178.469C266.502 178.469 270.355 174.612 270.355 169.853C270.355 165.094 266.502 161.236 261.749 161.236C256.997 161.236 253.144 165.094 253.144 169.853C253.144 174.612 256.997 178.469 261.749 178.469Z" fill="#46BA3C"/>
<path d="M261.749 174.179C264.135 174.179 266.07 172.242 266.07 169.853C266.07 167.464 264.135 165.527 261.749 165.527C259.363 165.527 257.429 167.464 257.429 169.853C257.429 172.242 259.363 174.179 261.749 174.179Z" fill="#D4F4D1"/>
</g>
<g opacity="0.45">
<path d="M353.553 113.33H315.501C312.354 113.33 309.803 115.885 309.803 119.036V176.393C309.803 179.544 312.354 182.098 315.501 182.098H353.553C356.7 182.098 359.251 179.544 359.251 176.393V119.036C359.251 115.885 356.7 113.33 353.553 113.33Z" fill="#46BA3C"/>
<path d="M350.666 107.107H318.387V113.296H350.666V107.107Z" fill="#D4F4D1"/>
<path d="M355.989 91.2902H312.722V107.107H355.989V91.2902Z" fill="#46BA3C"/>
<path d="M345.516 125.365H309.803V170.065H345.516V125.365Z" fill="#D4F4D1"/>
<path d="M338.317 144.122H331.246V137.043H324.071V144.122H317.001V151.307H324.071V158.386H331.246V151.307H338.317V144.122Z" fill="#46BA3C"/>
<path d="M353.553 113.33H315.501C312.354 113.33 309.803 115.885 309.803 119.036V176.393C309.803 179.544 312.354 182.098 315.501 182.098H353.553C356.7 182.098 359.251 179.544 359.251 176.393V119.036C359.251 115.885 356.7 113.33 353.553 113.33ZM356.972 176.393C356.972 178.281 355.438 179.817 353.553 179.817H315.501C313.615 179.817 312.081 178.281 312.081 176.393V119.036C312.081 117.148 313.615 115.612 315.501 115.612H353.553C355.438 115.612 356.972 117.148 356.972 119.036V176.393Z" fill="#FAFAFA"/>
</g>
<g opacity="0.45">
<path d="M282.013 276.799L253.147 305.703C251.55 307.252 249.804 308.631 247.936 309.83L228.288 322.426L217.674 331.861L208.254 340.232C207.544 340.864 206.465 340.831 205.794 340.16C205.12 339.484 205.088 338.404 205.719 337.693L214.082 328.264L223.505 317.637L236.067 297.981C237.271 296.096 238.667 294.337 240.221 292.731L240.369 292.575L269.069 263.838L282.013 276.799Z" fill="#D4F4D1"/>
<path d="M284.321 261.528C280.747 257.95 274.954 257.95 271.38 261.528L268.901 264.01L281.842 276.968L284.321 274.486C287.895 270.908 287.895 265.106 284.321 261.528Z" fill="#46BA3C"/>
<path d="M272.496 279.087L266.779 273.363L247.358 292.81L253.075 298.534L272.496 279.087Z" fill="#46BA3C"/>
<path d="M217.675 331.862L208.255 340.232C207.545 340.864 206.466 340.832 205.795 340.16C205.121 339.485 205.089 338.405 205.719 337.693L214.083 328.265L217.675 331.862Z" fill="#46BA3C"/>
<path d="M272.496 279.087L266.779 273.363L247.358 292.81L253.075 298.534L272.496 279.087Z" fill="#46BA3C"/>
<path d="M284.321 261.528C282.534 259.739 280.192 258.844 277.851 258.844C275.509 258.844 273.167 259.738 271.38 261.527L268.901 264.01L281.842 276.968L284.321 274.486C287.895 270.908 287.895 265.106 284.321 261.528ZM282.879 273.042L281.842 274.079L271.787 264.01L272.823 262.973C274.166 261.628 275.951 260.887 277.851 260.887C279.75 260.887 281.536 261.628 282.879 262.973C284.222 264.318 284.961 266.105 284.961 268.007C284.961 269.909 284.222 271.697 282.879 273.042Z" fill="#FAFAFA"/>
<path d="M273.809 319.669C275.61 321.053 276.825 322.931 277.454 325.301H273.652C273.128 323.958 272.295 322.894 271.154 322.107C270.012 321.321 268.613 320.927 266.958 320.927C265.638 320.927 264.46 321.253 263.424 321.903C262.387 322.553 261.569 323.481 260.973 324.687C260.376 325.894 260.077 327.304 260.077 328.919C260.077 330.513 260.376 331.914 260.973 333.12C261.569 334.326 262.387 335.254 263.424 335.904C264.461 336.554 265.639 336.879 266.958 336.879C268.613 336.879 270.011 336.486 271.154 335.699C272.295 334.913 273.128 333.859 273.652 332.537H277.454C276.825 334.908 275.61 336.78 273.809 338.154C272.007 339.528 269.744 340.215 267.021 340.215C264.927 340.215 263.073 339.738 261.459 338.783C259.846 337.829 258.6 336.497 257.72 334.787C256.84 333.078 256.4 331.122 256.4 328.919C256.4 326.717 256.84 324.761 257.72 323.051C258.6 321.342 259.846 320.004 261.459 319.039C263.073 318.074 264.927 317.592 267.021 317.592C269.744 317.592 272.007 318.284 273.809 319.669Z" fill="#46BA3C"/>
<path d="M283.337 321.716C280.754 321.716 278.652 319.611 278.652 317.024C278.652 314.438 280.754 312.333 283.337 312.333C285.921 312.333 288.023 314.438 288.023 317.024C288.022 319.611 285.921 321.716 283.337 321.716ZM283.337 314.376C281.879 314.376 280.693 315.564 280.693 317.025C280.693 318.485 281.879 319.673 283.337 319.673C284.796 319.673 285.982 318.485 285.982 317.025C285.982 315.564 284.796 314.376 283.337 314.376Z" fill="#46BA3C"/>
</g>
<g opacity="0.45">
<path d="M116.528 270.926C113.484 269.681 110.008 271.143 108.765 274.191C108.42 275.037 108.29 275.916 108.337 276.771L74.0945 291.175L60.2878 256.735C60.8734 256.186 61.3596 255.512 61.6948 254.726C62.9865 251.699 61.5821 248.195 58.5584 246.902C55.5343 245.609 52.036 247.015 50.7444 250.043C49.4528 253.071 50.8572 256.574 53.8808 257.867C54.6658 258.203 55.4824 258.353 56.2842 258.344L70.1167 292.848L35.8832 307.247C35.3259 306.67 34.6453 306.194 33.8554 305.871C30.8113 304.626 27.3356 306.088 26.0924 309.136C24.8492 312.184 26.3091 315.664 29.3536 316.909C32.3977 318.154 35.8734 316.692 37.1166 313.644C37.4394 312.852 37.5761 312.033 37.5544 311.23L71.7244 296.857L85.6049 331.48C85.0738 332.007 84.6316 332.64 84.3199 333.371C83.0283 336.399 84.4327 339.902 87.4564 341.195C90.48 342.489 93.9788 341.082 95.2704 338.054C96.562 335.026 95.1576 331.523 92.1335 330.23C91.2939 329.871 90.4188 329.727 89.5636 329.761L75.7018 295.183L110.117 280.707C110.652 281.231 111.292 281.664 112.026 281.964C115.07 283.208 118.546 281.747 119.789 278.698C121.032 275.651 119.572 272.171 116.528 270.926Z" fill="#D4F4D1"/>
<path d="M120.428 307.413C119.092 304.404 115.573 303.05 112.568 304.388C111.735 304.76 111.034 305.304 110.476 305.954L75.8059 292.615L89.6499 258.191C90.4518 258.201 91.2687 258.051 92.0537 257.717C95.0792 256.426 96.4871 252.925 95.1991 249.896C93.9106 246.867 90.4136 245.457 87.3886 246.747C84.3632 248.037 82.9552 251.538 84.2433 254.567C84.5776 255.354 85.0629 256.028 85.6481 256.577L71.7783 291.066L37.1172 277.731C37.1145 276.928 36.9525 276.113 36.6053 275.332C35.2688 272.323 31.7496 270.97 28.7455 272.308C25.7409 273.646 24.389 277.17 25.7254 280.178C27.0619 283.186 30.581 284.54 33.5852 283.202C34.3653 282.855 35.0308 282.358 35.5699 281.763L70.1666 295.074L56.2489 329.682C55.5016 329.694 54.7446 329.845 54.0146 330.156C50.9892 331.446 49.5813 334.947 50.8698 337.977C52.1583 341.006 55.6548 342.416 58.6802 341.126C61.7057 339.836 63.1136 336.335 61.8255 333.305C61.4681 332.464 60.9358 331.754 60.2951 331.186L74.1946 296.623L109.04 310.029C109.064 310.777 109.226 311.533 109.548 312.259C110.885 315.267 114.404 316.621 117.408 315.283C120.413 313.944 121.765 310.421 120.428 307.413Z" fill="#46BA3C"/>
<path d="M116.906 293.893V293.892C116.897 291.418 114.886 289.418 112.415 289.427L110.816 289.433C108.749 289.44 106.909 288.049 106.43 286.036C105.555 282.356 104.092 278.908 102.145 275.792C101.053 274.046 101.341 271.769 102.791 270.307L103.941 269.148C105.682 267.392 105.673 264.555 103.919 262.811C102.165 261.067 99.3317 261.077 97.5903 262.833L96.4404 263.993C94.9903 265.455 92.7187 265.759 90.9667 264.678C87.8414 262.75 84.3879 261.31 80.7067 260.46C78.6927 259.995 77.2901 258.162 77.283 256.092L77.2772 254.491C77.2683 252.017 75.2579 250.017 72.7865 250.026H72.7857C70.3143 250.035 68.3176 252.048 68.3265 254.523L68.3323 256.123C68.3394 258.193 66.9497 260.036 64.9388 260.515C61.2629 261.391 57.8192 262.856 54.7067 264.806C52.9622 265.9 50.6889 265.611 49.2286 264.159L48.0702 263.008C46.3164 261.264 43.4832 261.274 41.7418 263.03C40.0004 264.786 40.0102 267.623 41.764 269.367L42.9224 270.519C44.3827 271.971 44.6864 274.245 43.6071 275.999C41.6814 279.129 40.2433 282.587 39.3944 286.273C38.9299 288.289 37.1002 289.693 35.0338 289.701C34.5099 289.703 33.9678 289.704 33.4323 289.707C30.961 289.715 28.9647 291.728 28.9732 294.203V294.204C28.9821 296.678 30.9925 298.678 33.4638 298.669L35.0636 298.663C37.1304 298.656 38.9712 300.047 39.4494 302.061C40.3241 305.741 41.7871 309.189 43.7345 312.305C44.8263 314.052 44.5386 316.328 43.0885 317.79L41.9376 318.951C40.1962 320.707 40.206 323.544 41.9598 325.287C43.7136 327.031 46.5468 327.021 48.2882 325.265L49.4391 324.105C50.8892 322.643 53.1603 322.338 54.9123 323.419C58.0381 325.347 61.492 326.788 65.1736 327.638C67.1876 328.103 68.5903 329.936 68.5978 332.005L68.6036 333.607C68.6125 336.082 70.6229 338.081 73.0942 338.072H73.0951C75.5664 338.063 77.5631 336.05 77.5543 333.576L77.5485 331.973C77.5414 329.904 78.9307 328.061 80.9411 327.582C84.6161 326.706 88.0594 325.242 91.1709 323.292C92.9154 322.198 95.1887 322.486 96.6491 323.938L97.8079 325.091C99.5617 326.834 102.395 326.825 104.136 325.069C105.878 323.313 105.867 320.476 104.114 318.732L102.956 317.58C101.495 316.128 101.192 313.854 102.271 312.099C104.197 308.969 105.636 305.511 106.485 301.825C106.949 299.808 108.779 298.403 110.846 298.396C111.369 298.394 111.911 298.392 112.445 298.39C114.918 298.381 116.915 296.368 116.906 293.893Z" fill="#46BA3C"/>
<path d="M116.906 293.893C116.913 296.365 114.919 298.382 112.45 298.388C111.915 298.395 111.373 298.395 110.845 298.395C108.779 298.402 106.95 299.81 106.488 301.826C105.636 305.508 104.197 308.966 102.276 312.099C101.193 313.851 101.497 316.125 102.956 317.58L104.118 318.73C104.996 319.609 105.438 320.759 105.438 321.909C105.438 323.053 105.002 324.197 104.138 325.07C103.266 325.949 102.111 326.392 100.962 326.392C99.8267 326.392 98.6842 325.956 97.8127 325.09L96.6507 323.939C95.7858 323.08 94.6438 322.631 93.4881 322.631C92.6893 322.631 91.8839 322.842 91.1708 323.292C88.061 325.242 84.6213 326.703 80.9436 327.582C78.9301 328.058 77.5435 329.903 77.5501 331.972L77.5568 333.578C77.5634 336.051 75.5694 338.061 73.1003 338.074H73.0937C73.0937 338.074 73.087 338.074 73.0803 338.074C70.6174 338.074 68.6172 336.077 68.6039 333.605L68.5972 332.005C68.5906 329.936 67.1911 328.105 65.1771 327.635C61.4932 326.789 58.0401 325.348 54.917 323.417C54.204 322.981 53.4185 322.77 52.626 322.77C51.464 322.77 50.3087 323.233 49.4438 324.105L48.2885 325.269C47.4169 326.148 46.2683 326.591 45.1126 326.591C43.9768 326.591 42.8348 326.155 41.9632 325.289C40.2068 323.543 40.2005 320.707 41.9366 318.949L43.0919 317.792C44.5376 316.331 44.8284 314.051 43.7388 312.305C41.791 309.191 40.3253 305.74 39.4475 302.058C38.972 300.055 37.1431 298.667 35.0834 298.667H33.4459C32.2178 298.667 31.0954 298.165 30.29 297.358C29.4845 296.552 28.9828 295.441 28.9761 294.205C28.9628 291.732 30.9635 289.716 33.4326 289.71C33.9672 289.703 34.5089 289.703 35.0368 289.703C37.1032 289.696 38.932 288.288 39.3942 286.272C40.2458 282.59 41.6786 279.133 43.6065 275.999C44.6894 274.247 44.3857 271.973 42.9196 270.518L41.7643 269.368C40.0078 267.623 40.0016 264.787 41.7444 263.028C42.6159 262.149 43.7646 261.706 44.9199 261.706C46.0556 261.706 47.1976 262.142 48.0692 263.008L49.2311 264.159C50.0894 265.018 51.238 265.467 52.3938 265.467C53.1925 265.467 53.9917 265.256 54.7048 264.806C57.8208 262.856 61.261 261.395 64.9382 260.516C66.9517 260.04 68.3384 258.195 68.3317 256.126L68.325 254.526C68.325 254.519 68.325 254.519 68.325 254.512C68.325 252.04 70.3191 250.037 72.7882 250.024C72.7882 250.024 72.7948 250.024 72.8015 250.024L72.7948 252.668C71.7847 252.675 70.966 253.501 70.966 254.512L70.9726 256.112C70.986 259.457 68.7544 262.326 65.5522 263.087C62.2049 263.886 59.0294 265.215 56.1043 267.047C54.9952 267.747 53.7076 268.111 52.3938 268.111C50.4988 268.111 48.7161 267.377 47.3694 266.035L46.2075 264.885C45.8643 264.541 45.402 264.35 44.9199 264.35C44.4248 264.35 43.9626 264.541 43.6127 264.892C43.2695 265.242 43.0777 265.705 43.0844 266.194C43.0844 266.683 43.2757 267.146 43.6256 267.489L44.7809 268.64C47.1381 270.986 47.5803 274.583 45.8572 277.386C44.0483 280.321 42.7407 283.514 41.9686 286.866C41.2293 290.079 38.377 292.333 35.0426 292.346H34.1581L33.4384 292.353C32.95 292.353 32.4944 292.545 32.1446 292.895C31.8013 293.239 31.61 293.702 31.6162 294.191C31.6162 295.202 32.4416 296.022 33.445 296.022H35.0559C38.4032 296.022 41.2622 298.25 42.0214 301.449C42.8135 304.794 44.1473 307.974 45.9762 310.903C47.7193 313.693 47.3033 317.296 44.966 319.656L43.8107 320.813C43.0977 321.533 43.1043 322.697 43.8241 323.411C44.1673 323.754 44.6228 323.946 45.1117 323.946C45.6067 323.946 46.0689 323.754 46.4122 323.404L47.5675 322.241C48.8946 320.898 50.743 320.125 52.6247 320.125C53.9251 320.125 55.1928 320.489 56.2957 321.17C59.2336 322.981 62.4163 324.29 65.7698 325.063C68.9786 325.804 71.2297 328.653 71.2364 331.998L71.243 333.598C71.2497 334.603 72.0685 335.423 73.0719 335.43H73.0852C74.0953 335.423 74.9141 334.596 74.9141 333.585L74.9074 331.985C74.8941 328.64 77.1256 325.771 80.3278 325.01C83.6751 324.211 86.8511 322.882 89.7691 321.05C90.8849 320.35 92.1658 319.986 93.4863 319.986C95.3813 319.986 97.164 320.72 98.5106 322.062L99.6659 323.212C100.016 323.556 100.471 323.747 100.96 323.747C101.455 323.747 101.917 323.556 102.261 323.205C102.611 322.855 102.795 322.392 102.795 321.903C102.795 321.414 102.604 320.951 102.254 320.607L101.092 319.457C98.7348 317.11 98.2993 313.514 100.022 310.711C101.831 307.776 103.139 304.583 103.911 301.231C104.651 298.018 107.496 295.763 110.837 295.75H111.722L112.435 295.744C113.445 295.744 114.271 294.917 114.264 293.899C114.264 292.894 113.438 292.074 112.428 292.074H110.824C107.477 292.074 104.618 289.847 103.859 286.647C103.067 283.302 101.733 280.122 99.9039 277.193C98.1608 274.404 98.5768 270.801 100.914 268.44L102.069 267.284C102.413 266.933 102.598 266.47 102.598 265.981C102.598 265.492 102.406 265.029 102.056 264.685C101.713 264.342 101.251 264.15 100.763 264.15C100.274 264.15 99.812 264.348 99.4617 264.699L98.313 265.856C96.9793 267.198 95.1371 267.971 93.2558 267.971C91.9554 267.971 90.6811 267.607 89.5786 266.926C86.6473 265.121 83.4647 263.806 80.1107 263.032C76.9019 262.292 74.6508 259.443 74.6441 256.097L74.6375 254.497C74.6308 253.493 73.812 252.666 72.8019 252.666V250.022C75.2648 250.022 77.2651 252.018 77.2784 254.491L77.2851 256.091C77.2917 258.16 78.6912 259.991 80.7052 260.461C84.3891 261.307 87.8421 262.748 90.9652 264.678C91.6716 265.114 92.4642 265.326 93.2563 265.326C94.4182 265.326 95.5736 264.863 96.4385 263.991L97.5871 262.834C98.4653 261.948 99.614 261.505 100.763 261.505C101.905 261.505 103.047 261.941 103.919 262.807C105.675 264.552 105.682 267.388 103.939 269.147L102.79 270.304C101.344 271.764 101.054 274.045 102.143 275.791C104.091 278.904 105.557 282.355 106.429 286.031C106.911 288.041 108.74 289.429 110.799 289.429H112.417C112.423 289.429 112.43 289.429 112.43 289.429C113.665 289.429 114.781 289.925 115.593 290.731C116.398 291.54 116.899 292.657 116.906 293.893Z" fill="#FAFAFA"/>
</g>
<g opacity="0.45">
<path d="M123.808 222.879H93.7627V230.572H123.808V222.879Z" fill="#D4F4D1"/>
<path d="M103.315 230.622V230.616C103.315 227.565 105.784 225.094 108.829 225.094C111.882 225.094 114.35 227.566 114.35 230.616V230.622H103.315Z" fill="#46BA3C"/>
<path d="M123.808 222.512V223.053C123.366 223.178 122.9 223.246 122.415 223.246H95.1245C94.6521 223.246 94.1983 223.178 93.7632 223.06V222.512H123.808Z" fill="#D4F4D1"/>
<path d="M135.495 143.658L127.389 218.777C127.165 220.843 125.71 222.499 123.808 223.053C123.366 223.178 122.9 223.246 122.415 223.246H95.1246C94.6522 223.246 94.1984 223.178 93.7633 223.06C91.8488 222.512 90.3813 220.85 90.1576 218.777L82.0447 143.657C81.7277 140.694 84.0401 138.111 87.018 138.111H130.528C133.499 138.111 135.818 140.694 135.495 143.658Z" fill="#46BA3C"/>
<path d="M123.808 230.572H93.7627V234.354C93.7627 235.892 95.0081 237.139 96.5444 237.139H121.026C122.562 237.139 123.808 235.892 123.808 234.354V230.572Z" fill="#46BA3C"/>
<path d="M124.809 156.754H114.18V146.111H103.391V156.754H92.7617V167.557H103.391V178.2H114.18V167.557H124.809V156.754Z" fill="#D4F4D1"/>
<path d="M114.182 156.754V146.109H103.39V156.754H92.7598V167.56H103.39V178.198H114.182V167.56H124.806V156.754H114.182ZM122.319 165.07H111.695V175.708H105.877V165.07H95.2462V159.244H105.877V148.599H111.695V159.244H122.319V165.07Z" fill="#FAFAFA"/>
</g>
<g opacity="0.45">
<path d="M206.289 380.768C203.156 374.458 198.632 366.528 191.823 363.69C191.819 363.688 178.552 363.69 178.552 363.69C178.552 363.69 165.284 363.688 165.281 363.69C158.472 366.528 153.947 374.459 150.815 380.768C143.759 394.982 141.568 416.036 150.077 430.4C154.284 437.501 161.983 441.791 170.23 441.791H178.552H186.874C195.12 441.791 202.819 437.501 207.027 430.4C215.536 416.036 213.345 394.982 206.289 380.768Z" fill="#D4F4D1"/>
<path d="M187.896 352.918H169.207C167.038 352.918 165.28 354.679 165.28 356.85V363.689H191.823V356.85C191.823 354.678 190.065 352.918 187.896 352.918Z" fill="#46BA3C"/>
<path d="M183.855 343.514H173.249V352.918H183.855V343.514Z" fill="#D4F4D1"/>
<path d="M187.008 331.283V341.938C187.008 342.807 186.305 343.511 185.437 343.511H172.817C171.949 343.511 171.247 342.807 171.247 341.938C171.247 338.998 168.866 336.614 165.93 336.614H157.15C156.282 336.614 155.579 335.91 155.579 335.041V331.282C155.579 330.413 156.282 329.709 157.15 329.709H185.437C186.305 329.71 187.008 330.414 187.008 331.283Z" fill="#46BA3C"/>
<path d="M206.289 380.768C203.157 374.458 198.632 366.528 191.824 363.69C191.822 363.689 190.283 363.689 188.254 363.689C184.323 363.689 178.552 363.689 178.552 363.689C178.552 363.689 172.782 363.689 168.851 363.689C166.821 363.689 165.282 363.689 165.281 363.69C158.473 366.528 153.948 374.459 150.816 380.768C143.759 394.982 141.569 416.036 150.078 430.4C154.284 437.501 161.984 441.791 170.23 441.791H178.552H186.874C195.121 441.791 202.82 437.501 207.027 430.4C215.536 416.036 213.345 394.982 206.289 380.768ZM204.606 428.962C200.948 435.137 194.153 438.973 186.874 438.973H178.552H170.23C162.951 438.973 156.156 435.137 152.498 428.962C148.803 422.725 147.048 414.662 147.421 405.644C147.763 397.406 149.863 389.017 153.335 382.022C156.255 376.141 160.302 369.119 165.873 366.507C166.499 366.507 167.578 366.506 168.85 366.506L178.552 366.507L188.253 366.506C189.525 366.506 190.603 366.506 191.229 366.507C196.807 369.128 200.851 376.145 203.769 382.022C207.241 389.017 209.341 397.406 209.683 405.644C210.056 414.662 208.301 422.725 204.606 428.962Z" fill="#FAFAFA"/>
<path d="M195.85 397.619H184.375V386.129H172.728V397.619H161.253V409.281H172.728V420.771H184.375V409.281H195.85V397.619Z" fill="#46BA3C"/>
</g>
<g opacity="0.45">
<path d="M35.7422 43.9366C37.5313 43.9366 38.9852 45.3907 38.9854 47.1837V51.7062L38.9844 51.7179C38.9811 51.7684 38.9785 51.811 38.9785 51.8361V74.2648H39.9785L39.9854 51.7062C40.0527 49.9743 41.4761 48.589 43.2217 48.589C44.004 48.5891 44.7214 48.867 45.2852 49.3302L45.5166 49.5402C46.1014 50.1323 46.4638 50.9417 46.4639 51.8361V83.0782L47.3096 82.2697L56.7871 73.2052C57.2663 72.8023 57.9331 72.2979 58.7275 72.0753C59.4494 71.8732 60.3051 71.8955 61.2686 72.5284L61.4629 72.6632C62.5627 73.4686 62.9256 74.3735 62.918 75.214C62.91 76.0812 62.506 76.9533 61.9365 77.6447L53.5801 87.463L53.5547 87.4933L53.5332 87.5275C53.0933 88.2523 52.7185 89.2048 52.3721 90.2413C52.0245 91.2812 51.6931 92.4448 51.3525 93.5939C50.7038 95.783 50.024 97.9009 49.1094 99.3009L48.9238 99.5714C47.5205 101.5 46.8651 102.517 46.4473 103.469C46.0374 104.402 45.8547 105.288 45.3906 106.838C45.1032 107.793 44.9644 108.671 44.8213 110.492L44.8193 110.512V110.55C44.8193 111.295 44.46 112.024 43.7998 112.548L43.6631 112.651L43.6611 112.651C42.1071 113.765 38.8355 115.315 32.6875 115.315C27.2367 115.315 23.8494 114.198 21.9346 113.223L21.5713 113.029L21.5693 113.028L21.3848 112.919C20.5502 112.387 20.1071 111.534 20.1367 110.668L20.1504 110.482L20.1523 110.471L20.1543 110.458L20.1562 110.446C20.2994 109.21 20.3605 107.958 20.3271 106.711L20.3076 106.177C20.1538 102.83 19.6476 100.212 18.7627 96.8419L18.3594 95.3468V95.3458C17.9606 93.9048 17.6602 92.2225 17.6602 90.4191V62.2472C17.6602 61.3282 17.9753 60.5276 18.5273 59.9591C19.0765 59.3936 19.8916 59.0246 20.958 59.0245C21.9549 59.0245 22.6733 59.3471 23.1553 59.838L23.249 59.9386C23.7435 60.5007 24.0088 61.3023 24.0088 62.2472V74.2648H25.0088V52.3097C25.0089 51.4155 25.3711 50.6064 25.9561 50.0138C26.5476 49.4265 27.3569 49.0627 28.251 49.0626C30.04 49.0626 31.4939 50.5168 31.4941 52.3097V52.3107L31.5 74.2648H32.5V47.1837C32.5001 46.2895 32.8624 45.4805 33.4473 44.8878C34.0394 44.3004 34.8483 43.9368 35.7422 43.9366Z" stroke="#1EA912"/>
<path d="M45.0928 113.348C44.9152 113.526 44.719 113.692 44.505 113.843C42.6397 115.179 39.0712 116.776 32.6865 116.776C26.6081 116.776 22.9029 115.434 20.8649 114.308C19.3699 113.494 18.5175 111.926 18.6986 110.318L18.707 110.26C18.8642 108.909 18.9122 107.553 18.8487 106.248C18.6804 102.582 18.0779 99.8315 16.9523 95.7346C16.4533 93.9341 16.2002 92.1451 16.2002 90.4188V62.2469C16.1998 60.9643 16.6544 59.7897 17.4803 58.9396C18.3545 58.0483 19.5578 57.5632 20.9586 57.5632C21.9549 57.5632 22.8336 57.8086 23.5493 58.2794V52.3096C23.5493 51.059 24.0369 49.8773 24.9218 48.9823C25.8213 48.0896 27.0019 47.6014 28.2513 47.6014C29.2685 47.601 30.2369 47.9229 31.0401 48.5177L31.0406 47.1844C31.0401 45.9334 31.5276 44.7517 32.4134 43.8567C33.313 42.964 34.4936 42.4759 35.743 42.4759C36.9978 42.4759 38.1792 42.9658 39.0677 43.8554C39.9561 44.745 40.4454 45.9272 40.4454 47.1844V48.03C41.2225 47.4605 42.1815 47.1271 43.2214 47.1275C44.4717 47.1275 45.6523 47.6166 46.5452 48.5026C47.4367 49.4029 47.9242 50.585 47.9242 51.8361L47.9247 79.6608L55.8355 72.0984C58.0964 70.192 60.28 69.9853 62.3259 71.4835C63.495 72.3403 64.1934 73.4406 64.3461 74.6663C64.5077 75.9667 64.0384 77.3938 63.0576 78.5813L54.7428 88.3488C54.0892 89.4616 53.5413 91.3253 52.9619 93.2965C52.1845 95.94 51.3808 98.6738 50.103 100.431C47.8408 103.539 47.7124 103.998 47.1708 105.93C47.0638 106.311 46.9426 106.745 46.7885 107.258C46.5341 108.103 46.4097 108.911 46.2779 110.572C46.2677 111.621 45.8441 112.596 45.0928 113.348ZM18.8798 60.2561C18.8718 60.2641 18.8642 60.2716 18.8567 60.2801C18.3816 60.7691 18.1201 61.468 18.1201 62.2469V90.4188C18.1201 91.9708 18.3501 93.5873 18.8025 95.2225C19.9667 99.4589 20.5901 102.313 20.7663 106.157C20.8351 107.564 20.7836 109.025 20.6127 110.499L20.6051 110.554C20.5124 111.373 20.9652 112.174 21.7884 112.622C23.6337 113.642 27.017 114.853 32.6874 114.853C38.8723 114.853 42.0501 113.239 43.3932 112.277C44.0086 111.84 44.3593 111.213 44.3589 110.549L44.362 110.456C44.5067 108.616 44.6497 107.704 44.9503 106.705C45.0999 106.205 45.2185 105.782 45.3224 105.41C45.94 103.207 46.1762 102.563 48.5516 99.2993C49.6332 97.8122 50.3893 95.2407 51.1202 92.7542C51.7467 90.621 52.3394 88.6066 53.1399 87.2871L53.2296 87.1631L61.5871 77.3454C62.2234 76.5758 62.5377 75.6817 62.4409 74.9046C62.3539 74.2084 61.9339 73.5797 61.1924 73.0365C59.5593 71.8401 58.2051 72.6195 57.0947 73.5509L46.0044 84.1559V51.8365C46.0039 51.0954 45.7144 50.3943 45.1878 49.8622C44.6626 49.3407 43.962 49.0503 43.2214 49.0503C41.7206 49.0495 40.5036 50.2236 40.4454 51.7236L40.445 51.7796L40.4392 74.2653L38.5189 74.2649V51.8357C38.5189 51.7761 38.5202 51.717 38.5251 51.6569V47.184C38.5251 46.4406 38.2352 45.7409 37.7095 45.2145C37.1838 44.6881 36.4854 44.3982 35.7421 44.3982C35.0024 44.3982 34.3018 44.6885 33.7707 45.2163C33.2499 45.7422 32.96 46.4438 32.9604 47.184L32.96 74.2649H31.0401L31.0339 52.31C31.0339 51.5658 30.7444 50.866 30.2187 50.3401C29.6926 49.8132 28.9941 49.5238 28.2509 49.5238C27.5107 49.5243 26.8105 49.8141 26.2795 50.3419C25.7591 50.8682 25.4692 51.5694 25.4688 52.31V74.2653H23.5489V62.2478C23.5489 61.4169 23.326 60.7246 22.9042 60.2449C22.462 59.7417 21.8075 59.4865 20.9581 59.4865C20.1012 59.486 19.3833 59.7519 18.8798 60.2561Z" fill="#FAFAFA"/>
</g>
<g opacity="0.45">
<path d="M103.54 64.5161C103.54 62.4474 105.217 60.7687 107.283 60.7687C108.316 60.7687 109.25 61.1897 109.93 61.865C110.605 62.5461 111.025 63.4815 111.025 64.5161V67.0555V86.4709V74.4534C111.025 73.4189 111.316 72.4897 111.91 71.8148C112.497 71.1457 113.388 70.7309 114.576 70.7309C116.951 70.7309 118.374 72.3848 118.374 74.4534V82.8876V90.4828V102.625C118.374 104.484 118.065 106.212 117.657 107.686C116.525 111.805 115.9 114.636 115.727 118.408C115.659 119.802 115.714 121.207 115.875 122.595L115.881 122.632C116.017 123.84 115.386 125.03 114.205 125.674C112.287 126.733 108.736 128.021 102.847 128.021C96.6114 128.021 93.2339 126.448 91.5822 125.265C90.7159 124.652 90.2151 123.729 90.2151 122.756V122.737C90.073 120.929 89.9367 120.092 89.6645 119.188C88.7059 115.986 89.015 115.93 86.2066 112.071C84.0661 109.129 83.2127 102.694 81.5735 99.9929L73.216 90.1756C71.9728 88.6703 71.3392 86.2508 73.775 84.4667C76.1202 82.7489 78.1027 84.2169 79.0804 85.0407L88.5696 94.1151V64.043C88.5696 63.0085 88.9901 62.0731 89.6645 61.392C90.3452 60.7167 91.2789 60.2957 92.3121 60.2957C94.335 60.2957 95.9805 61.9059 96.0484 63.9128L96.0546 86.4714V64.0426C96.0546 63.999 96.0546 63.9559 96.0484 63.9123V59.3905C96.0484 57.3218 97.725 55.6431 99.7909 55.6431C100.824 55.6431 101.758 56.0641 102.439 56.7394C103.113 57.421 103.533 58.3559 103.533 59.3905V86.4709L103.54 64.5161Z" fill="#46BA3C"/>
<path d="M90.4389 125.553C89.685 124.798 89.2614 123.818 89.2561 122.776C89.1246 121.117 89.0003 120.309 88.7463 119.465C88.5923 118.951 88.4711 118.518 88.3641 118.137C87.8224 116.205 87.6936 115.746 85.4314 112.637C84.1536 110.881 83.3499 108.147 82.5729 105.503C81.993 103.532 81.4451 101.668 80.7911 100.555L72.486 90.7989C71.4959 89.6003 71.0266 88.1732 71.1887 86.8723C71.341 85.6471 72.0403 84.5467 73.2089 83.6905C75.2548 82.1922 77.438 82.399 79.6989 84.3049L79.7437 84.3449L87.6101 91.8672V64.0421C87.6097 62.7911 88.0977 61.6094 88.983 60.7144C89.8821 59.8222 91.0622 59.3336 92.3126 59.3331C93.3529 59.3331 94.3119 59.6666 95.0889 60.2338V59.39C95.0889 58.1327 95.5782 56.9502 96.4662 56.061C97.3547 55.1714 98.5353 54.6819 99.7909 54.6819C101.04 54.6819 102.221 55.17 103.114 56.0565C104.006 56.9577 104.494 58.1394 104.494 59.3905V60.7264C105.274 60.1489 106.24 59.8066 107.283 59.8066C108.532 59.807 109.712 60.2952 110.606 61.1812C111.498 62.0829 111.985 63.2646 111.985 64.5152V70.485C112.701 70.0138 113.579 69.7688 114.575 69.7684C115.977 69.7688 117.174 70.2516 118.054 71.1452C118.879 71.9957 119.334 73.1699 119.334 74.4525V102.624C119.334 104.35 119.081 106.139 118.581 107.942C117.456 112.037 116.854 114.788 116.685 118.451C116.622 119.748 116.669 121.094 116.825 122.454L116.835 122.523C117.016 124.131 116.163 125.699 114.664 126.517C112.63 127.64 108.926 128.981 102.847 128.981C96.4622 128.981 92.8929 127.384 91.0236 126.045C90.8119 125.895 90.6156 125.73 90.4389 125.553ZM78.4397 85.7564C77.3292 84.8255 75.9755 84.0461 74.3424 85.2425C73.6005 85.7853 73.1805 86.4144 73.0935 87.1106C72.9967 87.8878 73.311 88.7818 73.9562 89.5625L82.394 99.4932C83.195 100.813 83.7868 102.828 84.4138 104.96C85.1446 107.446 85.9007 110.018 86.9823 111.505C89.3573 114.769 89.5935 115.413 90.2115 117.617C90.3154 117.988 90.4344 118.411 90.5836 118.911C90.8838 119.91 91.0272 120.821 91.1715 122.661L91.1746 122.736C91.175 123.418 91.5267 124.047 92.1354 124.479C93.4834 125.444 96.6611 127.059 102.846 127.059C108.516 127.059 111.9 125.848 113.74 124.831C114.559 124.384 115.011 123.595 114.929 122.764L114.92 122.705C114.749 121.231 114.698 119.769 114.766 118.36C114.943 114.519 115.566 111.665 116.73 107.43C117.183 105.792 117.413 104.176 117.413 102.625V74.4534C117.413 73.674 117.151 72.9751 116.676 72.4865C116.669 72.4781 116.661 72.4705 116.653 72.4625C116.149 71.9579 115.432 71.6921 114.575 71.6916C113.725 71.6921 113.071 71.9468 112.629 72.4492C112.207 72.9293 111.984 73.622 111.984 74.4529V86.4704H110.064V64.5156C110.064 63.7749 109.773 63.0738 109.247 62.5412C108.722 62.0206 108.021 61.7299 107.281 61.7294C105.747 61.7299 104.499 62.9796 104.499 64.5161L104.493 86.4709L102.573 86.4704V59.39C102.573 58.6493 102.283 57.9482 101.756 57.4156C101.23 56.8941 100.53 56.6038 99.79 56.6038C99.0472 56.6034 98.3484 56.8937 97.8227 57.4201C97.297 57.9465 97.0075 58.6462 97.0075 59.39V63.8634C97.0124 63.9239 97.0141 63.9848 97.0137 64.0457V86.4709L95.0934 86.4713V86.4451L95.0871 63.9123C95.0361 62.4363 93.8164 61.2559 92.3112 61.2559C91.5711 61.2564 90.8705 61.5467 90.3394 62.074C89.8186 62.5999 89.5287 63.301 89.5287 64.0421L89.5291 96.3615L78.4397 85.7564Z" fill="#FAFAFA"/>
</g>
<g opacity="0.45">
<path d="M332.687 283.296C332.687 281.227 334.363 279.549 336.429 279.549C337.462 279.549 338.396 279.97 339.077 280.645C339.751 281.327 340.172 282.262 340.172 283.296V285.836V305.251V293.233C340.172 292.199 340.462 291.27 341.056 290.595C341.644 289.926 342.534 289.511 343.722 289.511C346.098 289.511 347.52 291.165 347.52 293.233V301.668V309.263V321.405C347.52 323.264 347.211 324.992 346.803 326.466C345.671 330.585 345.046 333.416 344.873 337.188C344.805 338.582 344.86 339.988 345.021 341.375L345.027 341.412C345.163 342.62 344.532 343.81 343.351 344.454C341.433 345.513 337.882 346.801 331.993 346.801C325.757 346.801 322.38 345.228 320.728 344.045C319.862 343.432 319.361 342.509 319.361 341.536V341.517C319.219 339.709 319.083 338.873 318.811 337.968C317.851 334.766 318.161 334.71 315.353 330.851C313.212 327.909 312.359 321.474 310.719 318.773L302.362 308.956C301.119 307.45 300.485 305.031 302.921 303.247C305.266 301.529 307.249 302.997 308.226 303.82L317.716 312.895V282.823C317.716 281.788 318.136 280.853 318.811 280.172C319.491 279.496 320.425 279.075 321.458 279.075C323.481 279.075 325.126 280.686 325.194 282.692L325.201 305.251V282.822C325.201 282.779 325.201 282.736 325.194 282.692V278.17C325.194 276.101 326.871 274.423 328.937 274.423C329.97 274.423 330.904 274.844 331.584 275.519C332.259 276.201 332.679 277.136 332.679 278.17V305.25L332.687 283.296Z" fill="#46BA3C"/>
<path d="M319.585 344.333C318.831 343.578 318.407 342.599 318.402 341.556C318.271 339.897 318.146 339.089 317.892 338.245C317.738 337.731 317.617 337.298 317.51 336.917C316.968 334.985 316.84 334.526 314.577 331.417C313.3 329.661 312.496 326.927 311.719 324.284C311.139 322.312 310.591 320.448 309.937 319.335L301.632 309.579C300.642 308.38 300.173 306.953 300.335 305.652C300.487 304.427 301.186 303.326 302.355 302.471C304.401 300.972 306.584 301.179 308.845 303.085L308.89 303.125L316.756 310.647V282.822C316.756 281.571 317.243 280.389 318.129 279.494C319.029 278.602 320.209 278.114 321.459 278.113C322.499 278.113 323.458 278.446 324.235 279.014V278.17C324.235 276.913 324.724 275.73 325.612 274.841C326.5 273.952 327.681 273.462 328.937 273.462C330.186 273.462 331.367 273.95 332.26 274.837C333.152 275.738 333.64 276.92 333.639 278.171V279.506C334.42 278.929 335.385 278.587 336.428 278.587C337.678 278.587 338.858 279.075 339.752 279.961C340.644 280.863 341.131 282.045 341.131 283.295V289.265C341.846 288.794 342.725 288.549 343.721 288.548C345.122 288.549 346.319 289.032 347.199 289.925C348.025 290.776 348.479 291.95 348.479 293.233V321.404C348.479 323.129 348.226 324.918 347.726 326.722C346.601 330.817 345.999 333.568 345.83 337.231C345.767 338.528 345.814 339.874 345.97 341.234L345.98 341.303C346.161 342.911 345.308 344.478 343.809 345.297C341.776 346.419 338.071 347.761 331.992 347.761C325.607 347.761 322.038 346.164 320.169 344.825C319.958 344.676 319.762 344.511 319.585 344.333ZM307.587 304.537C306.476 303.606 305.122 302.827 303.489 304.023C302.747 304.565 302.327 305.194 302.24 305.891C302.144 306.668 302.458 307.561 303.103 308.343L311.541 318.273C312.342 319.593 312.934 321.608 313.562 323.74C314.292 326.227 315.048 328.798 316.13 330.285C318.505 333.549 318.741 334.193 319.359 336.397C319.463 336.768 319.582 337.191 319.731 337.691C320.032 338.69 320.175 339.601 320.319 341.441L320.322 341.516C320.323 342.198 320.674 342.827 321.283 343.259C322.631 344.224 325.809 345.839 331.994 345.839C337.664 345.839 341.048 344.628 342.888 343.611C343.707 343.164 344.159 342.375 344.077 341.544L344.068 341.485C343.897 340.011 343.846 338.549 343.914 337.14C344.091 333.299 344.714 330.445 345.877 326.21C346.331 324.573 346.561 322.956 346.561 321.404V293.233C346.561 292.454 346.299 291.755 345.824 291.266C345.817 291.258 345.809 291.25 345.801 291.242C345.297 290.738 344.58 290.472 343.723 290.472C342.873 290.472 342.219 290.727 341.777 291.229C341.355 291.709 341.132 292.402 341.132 293.233V305.25H339.212V283.296C339.212 282.555 338.922 281.854 338.395 281.321C337.87 280.801 337.169 280.51 336.429 280.509C334.895 280.51 333.647 281.759 333.647 283.296L333.641 305.251L331.721 305.25V278.17C331.721 277.429 331.431 276.728 330.904 276.196C330.379 275.674 329.678 275.384 328.938 275.384C328.195 275.383 327.497 275.674 326.971 276.2C326.445 276.727 326.156 277.426 326.156 278.17V282.643C326.161 282.704 326.162 282.765 326.162 282.826V305.251L324.242 305.251V305.225L324.236 282.692C324.185 281.216 322.965 280.036 321.459 280.036C320.719 280.036 320.019 280.327 319.488 280.854C318.967 281.38 318.677 282.081 318.677 282.822L318.677 315.142L307.587 304.537Z" fill="#FAFAFA"/>
</g>
<g opacity="0.45">
<path d="M25.1528 401.852C25.1528 415.468 49.672 453 49.672 453C49.672 453 74.1863 415.468 74.1863 401.852C74.1863 387.679 63.1906 376.145 49.672 376.145C36.1535 376.145 25.1528 387.678 25.1528 401.852Z" fill="#46BA3C"/>
<path d="M49.6691 419.825C59.8794 419.825 68.1565 411.537 68.1565 401.313C68.1565 391.09 59.8794 382.802 49.6691 382.802C39.4588 382.802 31.1816 391.09 31.1816 401.313C31.1816 411.537 39.4588 419.825 49.6691 419.825Z" fill="#D4F4D1"/>
<path d="M38.6982 397.615H45.9759V390.328H53.3628V397.615H60.6404V405.012H53.3628V412.299H45.9759V405.012H38.6982V397.615Z" fill="#46BA3C"/>
<path d="M49.6691 382.802C39.4588 382.802 31.1816 391.09 31.1816 401.313C31.1816 411.537 39.4588 419.825 49.6691 419.825C59.8794 419.825 68.1565 411.537 68.1565 401.313C68.1569 391.09 59.8794 382.802 49.6691 382.802ZM49.6691 417.8C40.5901 417.8 33.2036 410.404 33.2036 401.313C33.2036 392.222 40.5901 384.826 49.6691 384.826C58.748 384.826 66.1345 392.222 66.1345 401.313C66.1345 410.404 58.748 417.8 49.6691 417.8Z" fill="#FAFAFA"/>
</g>
<g opacity="0.45">
<path d="M-16.7754 178.205L2.22307 159.184C5.77776 164.513 5.20277 171.782 0.505657 176.486C-4.19145 181.188 -11.4531 181.762 -16.7754 178.205Z" fill="#D4F4D1"/>
<path d="M-16.7757 178.205C-16.7997 178.19 -16.8237 178.174 -16.8477 178.158C-17.5612 177.677 -18.2405 177.117 -18.8714 176.485C-19.5028 175.853 -20.0596 175.175 -20.5404 174.46C-20.5564 174.436 -20.5746 174.412 -20.5884 174.386L-1.58992 155.365C-1.56594 155.379 -1.54197 155.395 -1.51755 155.411C-0.802258 155.893 -0.124702 156.451 0.506226 157.085C1.1376 157.717 1.69437 158.395 2.17522 159.109C2.19121 159.133 2.20941 159.157 2.22318 159.184L-16.7757 178.205Z" fill="#46BA3C"/>
<path d="M0.504568 176.485C3.17969 173.806 4.51703 170.297 4.51703 166.787H2.3534C2.3534 169.871 1.15371 172.771 -1.02546 174.953C-4.92914 178.861 -11.0733 179.454 -15.6389 176.359C-16.245 175.95 -16.8178 175.477 -17.3413 174.953C-17.8643 174.429 -18.3367 173.856 -18.7483 173.245C-20.0381 171.336 -20.7201 169.102 -20.7201 166.782C-20.7201 163.698 -19.5204 160.798 -17.3413 158.616C-13.4376 154.708 -7.29389 154.115 -2.72821 157.21C-2.1217 157.619 -1.54894 158.092 -1.02546 158.616C-0.50198 159.14 -0.0295582 159.714 0.38159 160.324C1.67142 162.233 2.3534 164.467 2.3534 166.786L4.51703 166.787C4.51703 166.787 4.51703 166.786 4.51703 166.786C4.51703 164.103 3.73559 161.421 2.17315 159.11C1.69273 158.396 1.1355 157.716 0.504568 157.084C-0.12636 156.452 -0.805231 155.894 -1.51874 155.413C-6.84678 151.802 -14.1511 152.358 -18.8708 157.084C-21.546 159.763 -22.8833 163.272 -22.8833 166.782C-22.8833 169.464 -22.1019 172.147 -20.5394 174.458C-20.0586 175.172 -19.5018 175.852 -18.8708 176.484C-18.2399 177.115 -17.5606 177.673 -16.8475 178.154C-11.5195 181.768 -4.21519 181.211 0.504568 176.485Z" fill="#FAFAFA"/>
</g>
<g opacity="0.45">
<path d="M151.443 212.415C147.89 207.085 148.463 199.816 153.16 195.113C157.859 190.408 165.119 189.834 170.441 193.393L151.443 212.415Z" fill="#D4F4D1"/>
<path d="M155.256 216.232L174.255 197.211C177.809 202.541 177.235 209.81 172.537 214.513C167.84 219.216 160.579 219.79 155.256 216.232Z" fill="#D4F4D1"/>
<path d="M155.256 216.233C155.232 216.218 155.208 216.202 155.184 216.186C154.471 215.705 153.791 215.145 153.16 214.513C152.529 213.881 151.972 213.203 151.491 212.488C151.475 212.464 151.457 212.44 151.443 212.414L170.442 193.393C170.466 193.407 170.49 193.423 170.514 193.439C171.229 193.921 171.907 194.479 172.538 195.113C173.169 195.745 173.726 196.423 174.207 197.137C174.223 197.161 174.241 197.185 174.254 197.212L155.256 216.233Z" fill="#46BA3C"/>
<path d="M172.536 214.513C175.211 211.834 176.549 208.325 176.549 204.815H174.385C174.385 207.899 173.185 210.799 171.006 212.981C167.103 216.89 160.958 217.482 156.393 214.387C155.787 213.978 155.214 213.505 154.69 212.981C154.167 212.457 153.695 211.884 153.283 211.272C151.994 209.364 151.312 207.13 151.312 204.81C151.312 201.726 152.511 198.825 154.69 196.644C158.594 192.735 164.738 192.143 169.304 195.238C169.91 195.647 170.483 196.12 171.006 196.644C171.53 197.168 172.002 197.741 172.413 198.352C173.703 200.26 174.385 202.495 174.385 204.814L176.549 204.815V204.814C176.549 202.131 175.767 199.448 174.205 197.138C173.724 196.424 173.167 195.744 172.536 195.112C171.905 194.48 171.226 193.922 170.513 193.441C165.185 189.83 157.881 190.386 153.161 195.112C150.486 197.79 149.148 201.3 149.148 204.81C149.148 207.492 149.93 210.176 151.492 212.487C151.973 213.201 152.53 213.88 153.161 214.512C153.792 215.144 154.471 215.702 155.184 216.183C160.512 219.795 167.817 219.239 172.536 214.513Z" fill="#FAFAFA"/>
</g>
</g>
<defs>
<clipPath id="clip0_197_4">
<rect width="359" height="453" fill="white"/>
</clipPath>
</defs>
</svg>
