<svg width="24" height="24" viewBox="0 0 24 24" fill="none" xmlns="http://www.w3.org/2000/svg">
<path d="M10.7569 4.49219C10.9062 4.49222 11.052 4.53679 11.1758 4.62019C11.2996 4.70358 11.3957 4.82202 11.4518 4.96033C11.5079 5.09865 11.5215 5.25056 11.4907 5.39662C11.46 5.54269 11.3864 5.67627 11.2794 5.78027L5.55963 11.5H20.2491C20.3485 11.4986 20.4471 11.517 20.5394 11.554C20.6316 11.5911 20.7155 11.6461 20.7863 11.7159C20.8571 11.7857 20.9133 11.8688 20.9517 11.9605C20.99 12.0522 21.0098 12.1506 21.0098 12.25C21.0098 12.3494 20.99 12.4478 20.9517 12.5395C20.9133 12.6312 20.8571 12.7143 20.7863 12.7841C20.7155 12.8539 20.6316 12.9089 20.5394 12.946C20.4471 12.983 20.3485 13.0014 20.2491 13H5.55963L11.2794 18.7197C11.3513 18.7888 11.4088 18.8716 11.4484 18.9632C11.488 19.0548 11.5089 19.1534 11.5099 19.2532C11.5109 19.3529 11.492 19.4519 11.4543 19.5443C11.4166 19.6367 11.3608 19.7206 11.2902 19.7912C11.2197 19.8617 11.1358 19.9175 11.0434 19.9552C10.951 19.9929 10.852 20.0118 10.7522 20.0108C10.6525 20.0098 10.5539 19.9889 10.4623 19.9493C10.3707 19.9097 10.2879 19.8523 10.2188 19.7803L3.21881 12.7803C3.07821 12.6396 2.99923 12.4489 2.99923 12.25C2.99923 12.0511 3.07821 11.8604 3.21881 11.7197L10.2188 4.71973C10.2887 4.64773 10.3724 4.5905 10.4648 4.55142C10.5572 4.51233 10.6565 4.49219 10.7569 4.49219Z" fill="#FAFAFA"/>
</svg>
