<svg width="20" height="20" viewBox="0 0 20 20" fill="none" xmlns="http://www.w3.org/2000/svg">
<path d="M3.54167 2.91675C2.28343 2.91675 1.25 3.95018 1.25 5.20841V14.7917C1.25 16.05 2.28343 17.0834 3.54167 17.0834H16.4583C17.7166 17.0834 18.75 16.05 18.75 14.7917V5.20841C18.75 3.95018 17.7166 2.91675 16.4583 2.91675H3.54167ZM3.54167 4.16675H16.4583C17.0409 4.16675 17.5 4.62582 17.5 5.20841V14.7917C17.5 15.3743 17.0409 15.8334 16.4583 15.8334H3.54167C2.95907 15.8334 2.5 15.3743 2.5 14.7917V5.20841C2.5 4.62582 2.95907 4.16675 3.54167 4.16675ZM12.7083 5.83341C12.2111 5.83341 11.7341 6.03096 11.3825 6.38259C11.0309 6.73422 10.8333 7.21113 10.8333 7.70842C10.8333 8.2057 11.0309 8.68261 11.3825 9.03424C11.7341 9.38587 12.2111 9.58342 12.7083 9.58342C13.2056 9.58342 13.6825 9.38587 14.0342 9.03424C14.3858 8.68261 14.5833 8.2057 14.5833 7.70842C14.5833 7.21113 14.3858 6.73422 14.0342 6.38259C13.6825 6.03096 13.2056 5.83341 12.7083 5.83341ZM5 8.33342C4.53958 8.33342 4.16667 8.70633 4.16667 9.16675V10.8334C4.16667 11.2938 4.53958 11.6667 5 11.6667H7.08333C7.54375 11.6667 7.91667 11.2938 7.91667 10.8334V9.16675C7.91667 8.70633 7.54375 8.33342 7.08333 8.33342H5ZM10.4167 10.4167C9.95625 10.4167 9.58333 10.7897 9.58333 11.2501V12.2917C9.58333 13.3272 10.9825 14.1667 12.7083 14.1667C14.4342 14.1667 15.8333 13.3272 15.8333 12.2917V11.2501C15.8333 10.7897 15.4604 10.4167 15 10.4167H10.4167Z" fill="#771F11"/>
</svg>
