<svg width="17" height="16" viewBox="0 0 17 16" fill="none" xmlns="http://www.w3.org/2000/svg">
<path d="M13.2945 0.31703C13.9457 1.68343 14.597 3.05018 15.2482 4.41729C15.3902 4.71564 15.4888 4.93227 15.5441 5.06717C16.2789 6.86695 16.3094 8.8705 15.6314 10.6999C15.6263 10.7135 15.6272 10.7267 15.6339 10.7395C15.902 11.2482 16.0839 11.5976 16.1794 11.7877C16.3374 12.1021 16.2035 12.4715 15.8903 12.6342C15.8115 12.6751 15.6649 12.7 15.4504 12.7088C15.2801 12.7159 14.963 12.7296 14.499 12.7498C14.4897 12.7503 14.4805 12.7527 14.4721 12.757C14.4638 12.7612 14.4564 12.7672 14.4506 12.7745C13.1897 14.359 11.3657 15.3869 9.3452 15.6503C9.17689 15.6721 8.93843 15.6926 8.62982 15.7116C7.03458 15.8099 5.43945 15.906 3.84445 16C3.8375 15.9931 3.83571 15.9899 3.83906 15.9904C3.12535 14.5733 2.4132 13.1556 1.70261 11.7374C1.56758 11.4678 1.46666 11.2531 1.39986 11.0932C0.617685 9.22132 0.601523 7.13176 1.35354 5.25597C1.35647 5.2487 1.35779 5.24089 1.35742 5.23307C1.35705 5.22525 1.35499 5.2176 1.35138 5.21064L1.01703 4.57146C0.970826 4.48176 0.924618 4.39254 0.878411 4.3038C0.816401 4.18483 0.778812 4.09264 0.765644 4.02721C0.70567 3.7285 0.880566 3.41515 1.17505 3.31273C1.23898 3.2906 1.34372 3.27597 1.48929 3.26883C1.66358 3.2605 1.83932 3.25313 2.01649 3.2467L2.53758 3.22029C2.54955 3.21958 2.55949 3.2147 2.56739 3.20566C3.39577 2.22185 4.40528 1.48143 5.59591 0.984406L5.62321 0.9737C6.37211 0.669633 7.09575 0.48893 7.79413 0.431591C9.25482 0.311439 10.716 0.192478 12.1776 0.0747054L13.1232 0.000116532C13.1352 -0.000835163 13.1438 0.0040424 13.1491 0.014749L13.2945 0.31703ZM1.47779 3.94834C1.46965 3.94144 1.46175 3.93906 1.45409 3.9412C1.45267 3.94163 1.45136 3.94236 1.45025 3.94334C1.44914 3.94432 1.44826 3.94551 1.44767 3.94685C1.44709 3.94818 1.44681 3.94961 1.44687 3.95104C1.44692 3.95247 1.4473 3.95386 1.44799 3.95512L2.0919 5.18923C2.09741 5.20017 2.09777 5.21112 2.09298 5.22206C1.28961 7.00899 1.26591 9.04716 2.02115 10.8473C2.08149 10.9912 2.18324 11.2061 2.32641 11.4918C2.95991 12.7576 3.59785 14.0302 4.24021 15.3098C5.66379 15.226 7.08677 15.141 8.50916 15.0546C8.83309 15.0351 9.07167 15.0156 9.22489 14.9961C11.1911 14.7488 12.9476 13.7095 14.113 12.1174C14.1199 12.1079 14.1294 12.1029 14.1414 12.1025L15.5179 12.0393C15.5267 12.0417 15.5342 12.0423 15.5402 12.0411C15.5536 12.038 15.557 12.0304 15.5506 12.0182L14.8991 10.7691C14.8964 10.7641 14.8949 10.7586 14.8947 10.7529C14.8944 10.7472 14.8954 10.7415 14.8977 10.7363C15.376 9.59617 15.5446 8.40774 15.4033 7.17101C15.3157 6.40276 15.1017 5.66091 14.7612 4.94548C14.0906 3.53721 13.4166 2.12109 12.7393 0.697114C11.2252 0.817027 9.71115 0.939201 8.19707 1.06363C7.8887 1.08909 7.65108 1.11491 7.4842 1.14108C5.65265 1.42766 4.03119 2.39125 2.9003 3.85876C2.89288 3.86804 2.8833 3.87292 2.87157 3.87339C2.10807 3.90575 1.65113 3.92574 1.50078 3.93335C1.48929 3.93406 1.48163 3.93906 1.47779 3.94834Z" fill="white"/>
<path d="M12.6902 0.507935L10.9377 3.57966C10.1698 3.13131 9.34999 2.90113 8.47811 2.88913C7.55823 2.87641 6.69193 3.10706 5.8792 3.5811C5.16815 3.99584 4.58765 4.57992 4.13769 5.33333L1.51562 3.78775C1.51943 3.77839 1.52703 3.77335 1.53843 3.77263C1.68763 3.76495 2.14103 3.74479 2.89864 3.71214C2.91028 3.71166 2.91979 3.70674 2.92715 3.69738C4.04931 2.21697 5.65826 1.2449 7.47568 0.955804C7.64126 0.929402 7.87705 0.903361 8.18304 0.877679C9.68544 0.752151 11.1878 0.628903 12.6902 0.507935Z" fill="#F05E60"/>
<path d="M12.6767 0.507935C13.3527 1.94245 14.0253 3.36906 14.6946 4.78776C15.0343 5.5085 15.2479 6.25584 15.3354 7.02978C15.4764 8.27567 15.3082 9.4729 14.8308 10.6215C14.8285 10.6267 14.8275 10.6325 14.8277 10.6382C14.828 10.6439 14.8295 10.6495 14.8322 10.6545L15.4823 11.9129C15.4888 11.9251 15.4853 11.9328 15.4719 11.9359C15.466 11.9371 15.4586 11.9365 15.4497 11.9341C15.4454 11.9195 15.4298 11.9044 15.4028 11.8888C14.5402 11.3886 13.6756 10.8876 12.809 10.386C13.2923 9.5152 13.5014 8.60284 13.4362 7.64889C13.3193 5.93969 12.3903 4.43722 10.9141 3.57543L12.6767 0.507935Z" fill="#DB5357"/>
<path d="M10.9589 3.72718C12.4113 4.57585 13.3252 6.05546 13.4402 7.73864C13.5044 8.67807 13.2987 9.57655 12.8231 10.4341C12.2571 11.4568 11.4273 12.1744 10.3338 12.5867C9.92097 12.7425 9.52088 12.8553 9.13348 12.9252C8.4807 13.0428 7.79312 13.1168 7.07075 13.1472C6.55924 13.1689 6.03762 13.1886 5.50589 13.2063C5.27247 12.7746 5.04081 12.3358 4.81091 11.89C4.41459 11.1206 4.03624 10.3048 3.78448 9.44732C3.6385 8.94928 3.55975 8.45938 3.54824 7.97763C3.53061 7.24426 3.68434 6.54063 4.00944 5.86674C4.08185 5.71686 4.15554 5.57854 4.23052 5.45179C4.67574 4.71087 5.25014 4.13647 5.9537 3.72859C6.75787 3.26242 7.61505 3.03559 8.52524 3.0481C9.38795 3.0599 10.1992 3.28626 10.9589 3.72718ZM5.69912 6.29869C5.39623 6.82553 5.31619 7.46319 5.57536 8.0233C5.58053 8.0344 5.58006 8.04525 5.57395 8.05588C5.42703 8.31292 5.2774 8.57303 5.12508 8.83622C5.11967 8.84542 5.11768 8.85239 5.11909 8.85711C5.12026 8.86183 5.12543 8.86678 5.1346 8.87198C5.39764 9.02351 5.65669 9.17375 5.91174 9.32269C5.92232 9.32883 5.9282 9.33803 5.92937 9.35031C5.98367 9.9653 6.37048 10.4776 6.89515 10.7818C7.41948 11.0859 8.05452 11.1663 8.61233 10.906C8.62338 10.9008 8.6342 10.9013 8.64478 10.9074C8.90077 11.055 9.15981 11.2052 9.42192 11.3582C9.43108 11.3636 9.43802 11.3657 9.44272 11.3645C9.44766 11.3634 9.45271 11.358 9.45788 11.3486C9.60879 11.0847 9.75842 10.8246 9.90675 10.5683C9.91286 10.5576 9.92191 10.5519 9.93389 10.5509C10.5467 10.4964 11.0566 10.108 11.3598 9.58115C11.6627 9.05432 11.7428 8.41666 11.4836 7.85654C11.4784 7.84545 11.4789 7.83459 11.485 7.82397C11.6319 7.56692 11.7815 7.30681 11.9339 7.04363C11.9393 7.03442 11.9413 7.02746 11.9399 7.02274C11.9387 7.01802 11.9335 7.01306 11.9243 7.00787C11.6613 6.85633 11.4023 6.70609 11.1472 6.55715C11.1366 6.55102 11.1308 6.54181 11.1296 6.52954C11.0753 5.91454 10.6885 5.40222 10.1638 5.09809C9.63912 4.79395 9.00408 4.71358 8.44626 4.97381C8.43521 4.979 8.4244 4.97853 8.41382 4.9724C8.15783 4.82487 7.89878 4.67463 7.63668 4.52168C7.62751 4.51625 7.62058 4.51413 7.61588 4.51531C7.61117 4.51649 7.60624 4.5218 7.60107 4.53124C7.45015 4.79513 7.30053 5.05525 7.1522 5.31158C7.14609 5.3222 7.13704 5.32799 7.12505 5.32893C6.51223 5.38346 6.00236 5.77186 5.69912 6.29869Z" fill="white"/>
<path d="M1.54529 3.81751L4.07943 5.3576C4.00619 5.48603 3.93421 5.62618 3.86349 5.77805C3.54595 6.46086 3.39578 7.1738 3.413 7.91688C3.42426 8.40502 3.50118 8.9014 3.64376 9.40603C3.88967 10.2749 4.25921 11.1015 4.64633 11.881C4.87088 12.3328 5.09715 12.7774 5.32515 13.2148L4.19446 15.2381C3.57844 13.9519 2.96665 12.6726 2.35912 11.4003C2.22182 11.1131 2.12424 10.8971 2.06638 10.7524C1.34209 8.94289 1.36482 6.8941 2.13526 5.09787C2.13985 5.08687 2.1395 5.07587 2.13422 5.06486L1.5167 3.82433C1.51605 3.82306 1.51568 3.82166 1.51563 3.82023C1.51558 3.81879 1.51584 3.81735 1.5164 3.81601C1.51696 3.81467 1.51781 3.81347 1.51887 3.81249C1.51994 3.8115 1.5212 3.81077 1.52256 3.81033C1.52991 3.80818 1.53748 3.81057 1.54529 3.81751Z" fill="#234D69"/>
<path d="M7.58053 4.57173C7.58526 4.57055 7.59223 4.57267 7.60145 4.57811C7.86491 4.73122 8.1253 4.88162 8.38263 5.0293C8.39326 5.03544 8.40413 5.03592 8.41524 5.03072C8.97596 4.77021 9.6143 4.85067 10.1417 5.15513C10.6691 5.45958 11.0579 5.97245 11.1125 6.5881C11.1137 6.60039 11.1196 6.6096 11.1302 6.61574C11.3866 6.76484 11.647 6.91524 11.9114 7.06694C11.9206 7.07214 11.9258 7.0771 11.927 7.08182C11.9284 7.08655 11.9264 7.09352 11.921 7.10273C11.7679 7.3662 11.6175 7.62659 11.4698 7.88391C11.4636 7.89454 11.4632 7.90541 11.4684 7.91651C11.7289 8.47723 11.6484 9.11556 11.344 9.64296C11.0391 10.1704 10.5266 10.5592 9.91061 10.6137C9.89856 10.6147 9.88947 10.6205 9.88332 10.6311C9.73422 10.8877 9.58382 11.1481 9.43212 11.4123C9.42692 11.4217 9.42184 11.4271 9.41688 11.4282C9.41216 11.4294 9.40519 11.4273 9.39597 11.4219C9.1325 11.2687 8.87211 11.1183 8.61479 10.9707C8.60415 10.9645 8.59328 10.964 8.58218 10.9692C8.02145 11.2298 7.38311 11.1493 6.85606 10.8448C6.32866 10.5404 5.93984 10.0275 5.88525 9.41187C5.88407 9.39958 5.87816 9.39036 5.86753 9.38422C5.61115 9.23512 5.35076 9.08473 5.08635 8.93303C5.07713 8.92783 5.07193 8.92287 5.07075 8.91814C5.06934 8.91342 5.07134 8.90645 5.07678 8.89723C5.22989 8.63377 5.3803 8.37338 5.52798 8.11606C5.53412 8.10543 5.53459 8.09456 5.52939 8.08345C5.26888 7.52274 5.34934 6.8844 5.6538 6.35701C5.95862 5.82961 6.47114 5.4408 7.08716 5.38622C7.09921 5.38527 7.1083 5.37948 7.11445 5.36885C7.26355 5.11224 7.41395 4.85185 7.56565 4.58768C7.57085 4.57823 7.57581 4.57291 7.58053 4.57173Z" fill="#38BA9B"/>
<path d="M12.8633 10.4127C13.7237 10.9126 14.5821 11.4117 15.4385 11.9101C15.4653 11.9257 15.4809 11.9407 15.4852 11.9553L14.1212 12.0187C14.1093 12.0192 14.1 12.0242 14.0931 12.0337C12.9384 13.6318 11.1979 14.675 9.24968 14.9232C9.09785 14.9428 8.86145 14.9624 8.54048 14.982C7.13109 15.0687 5.72112 15.1541 4.31055 15.2381L5.47879 13.2177C6.0154 13.1998 6.54181 13.1798 7.05803 13.1579C7.78703 13.1271 8.48093 13.0522 9.13972 12.9332C9.53068 12.8626 9.93444 12.7484 10.351 12.5908C11.4546 12.1736 12.292 11.4475 12.8633 10.4127Z" fill="#173F58"/>
</svg>
